<svg width="40" height="40" viewBox="0 0 40 40" fill="none" xmlns="http://www.w3.org/2000/svg">
<g clip-path="url(#clip0_158_332)" filter="url(#filter0_d_158_332)">
<path d="M36.0001 16.098C36.0001 7.20605 28.8361 -0.00195312 20.0001 -0.00195312C11.1601 4.68751e-05 3.99609 7.20605 3.99609 16.1C3.99609 24.134 9.84809 30.794 17.4961 32.002V20.752H13.4361V16.1H17.5001V12.55C17.5001 8.51605 19.8901 6.28805 23.5441 6.28805C25.2961 6.28805 27.1261 6.60205 27.1261 6.60205V10.562H25.1081C23.1221 10.562 22.5021 11.804 22.5021 13.078V16.098H26.9381L26.2301 20.75H22.5001V32C30.1481 30.792 36.0001 24.132 36.0001 16.098Z" fill="white"/>
</g>
<defs>
<filter id="filter0_d_158_332" x="0" y="0" width="40" height="40" filterUnits="userSpaceOnUse" color-interpolation-filters="sRGB">
<feFlood flood-opacity="0" result="BackgroundImageFix"/>
<feColorMatrix in="SourceAlpha" type="matrix" values="0 0 0 0 0 0 0 0 0 0 0 0 0 0 0 0 0 0 127 0" result="hardAlpha"/>
<feOffset dy="4"/>
<feGaussianBlur stdDeviation="2"/>
<feComposite in2="hardAlpha" operator="out"/>
<feColorMatrix type="matrix" values="0 0 0 0 0 0 0 0 0 0 0 0 0 0 0 0 0 0 0.25 0"/>
<feBlend mode="normal" in2="BackgroundImageFix" result="effect1_dropShadow_158_332"/>
<feBlend mode="normal" in="SourceGraphic" in2="effect1_dropShadow_158_332" result="shape"/>
</filter>
<clipPath id="clip0_158_332">
<rect width="32" height="32" fill="white" transform="translate(4)"/>
</clipPath>
</defs>
</svg>
