<svg width="213" height="23" viewBox="0 0 213 23" fill="none" xmlns="http://www.w3.org/2000/svg">
<g filter="url(#filter0_d_158_312)">
<path d="M9.26016 11.07C8.32682 11.07 7.47282 10.846 6.69816 10.398C5.92349 9.95 5.31216 9.34333 4.86416 8.578C4.42549 7.80333 4.20616 6.94467 4.20616 6.002C4.20616 5.05933 4.42549 4.20533 4.86416 3.44C5.31216 2.67467 5.91882 2.07267 6.68416 1.634C7.45882 1.186 8.31749 0.962 9.26016 0.962C10.2028 0.962 11.0568 1.186 11.8222 1.634C12.5968 2.07267 13.2035 2.67933 13.6422 3.454C14.0902 4.21933 14.3142 5.06867 14.3142 6.002C14.3142 6.94467 14.0902 7.80333 13.6422 8.578C13.2035 9.34333 12.5968 9.95 11.8222 10.398C11.0475 10.846 10.1935 11.07 9.26016 11.07ZM9.26016 10.44C10.0815 10.44 10.8235 10.2487 11.4862 9.866C12.1582 9.474 12.6855 8.942 13.0682 8.27C13.4508 7.58867 13.6422 6.83267 13.6422 6.002C13.6422 5.18067 13.4508 4.434 13.0682 3.762C12.6855 3.09 12.1582 2.56267 11.4862 2.18C10.8235 1.788 10.0815 1.592 9.26016 1.592C8.43882 1.592 7.69216 1.788 7.02016 2.18C6.34816 2.56267 5.82082 3.09 5.43816 3.762C5.05549 4.434 4.86416 5.18067 4.86416 6.002C4.86416 6.83267 5.05549 7.58867 5.43816 8.27C5.82082 8.942 6.34816 9.474 7.02016 9.866C7.69216 10.2487 8.43882 10.44 9.26016 10.44ZM9.37216 9.068C8.49482 9.068 7.79482 8.79267 7.27216 8.242C6.75882 7.69133 6.50216 6.94467 6.50216 6.002C6.50216 5.078 6.75882 4.34067 7.27216 3.79C7.79482 3.23933 8.49482 2.964 9.37216 2.964C9.77349 2.964 10.1608 3.034 10.5342 3.174C10.9075 3.30467 11.2248 3.49133 11.4862 3.734L11.1502 4.49C10.6088 4.05133 10.0442 3.832 9.45616 3.832C8.85882 3.832 8.39682 4.01867 8.07016 4.392C7.75282 4.76533 7.59416 5.302 7.59416 6.002C7.59416 6.71133 7.75282 7.25733 8.07016 7.64C8.39682 8.01333 8.85882 8.2 9.45616 8.2C10.0442 8.2 10.6088 7.98067 11.1502 7.542L11.4862 8.298C11.2155 8.54067 10.8935 8.732 10.5202 8.872C10.1468 9.00267 9.76416 9.068 9.37216 9.068ZM23.6799 11.112C22.7373 11.112 21.9159 10.9067 21.2159 10.496C20.5253 10.0853 19.9933 9.49733 19.6199 8.732C19.2466 7.95733 19.0599 7.04733 19.0599 6.002C19.0599 4.95667 19.2466 4.056 19.6199 3.3C19.9933 2.53467 20.5253 1.94667 21.2159 1.536C21.9159 1.12533 22.7373 0.92 23.6799 0.92C24.3706 0.92 25.0006 1.02733 25.5699 1.242C26.1486 1.44733 26.6479 1.76 27.0679 2.18L26.6339 3.062C26.1579 2.65133 25.6866 2.35733 25.2199 2.18C24.7626 2.00267 24.2539 1.914 23.6939 1.914C22.6019 1.914 21.7526 2.26867 21.1459 2.978C20.5486 3.68733 20.2499 4.69533 20.2499 6.002C20.2499 7.318 20.5486 8.33533 21.1459 9.054C21.7433 9.76333 22.5926 10.118 23.6939 10.118C24.2539 10.118 24.7626 10.0293 25.2199 9.852C25.6866 9.67467 26.1579 9.38067 26.6339 8.97L27.0679 9.852C26.6479 10.272 26.1486 10.5893 25.5699 10.804C25.0006 11.0093 24.3706 11.112 23.6799 11.112ZM31.3915 11.098C30.7289 11.098 30.1455 10.9487 29.6415 10.65C29.1375 10.3513 28.7455 9.92667 28.4655 9.376C28.1949 8.82533 28.0595 8.18133 28.0595 7.444C28.0595 6.70667 28.1949 6.06267 28.4655 5.512C28.7455 4.96133 29.1375 4.53667 29.6415 4.238C30.1455 3.93933 30.7289 3.79 31.3915 3.79C32.0542 3.79 32.6375 3.93933 33.1415 4.238C33.6455 4.53667 34.0329 4.96133 34.3035 5.512C34.5835 6.06267 34.7235 6.70667 34.7235 7.444C34.7235 8.18133 34.5835 8.82533 34.3035 9.376C34.0329 9.92667 33.6455 10.3513 33.1415 10.65C32.6375 10.9487 32.0542 11.098 31.3915 11.098ZM31.3915 10.16C32.0915 10.16 32.6282 9.93133 33.0015 9.474C33.3749 9.00733 33.5615 8.33067 33.5615 7.444C33.5615 6.58533 33.3702 5.92267 32.9875 5.456C32.6049 4.98 32.0729 4.742 31.3915 4.742C30.7009 4.742 30.1642 4.98 29.7815 5.456C29.3989 5.92267 29.2075 6.58533 29.2075 7.444C29.2075 8.33067 29.3942 9.00733 29.7675 9.474C30.1502 9.93133 30.6915 10.16 31.3915 10.16ZM39.7673 3.79C40.3833 3.79 40.9293 3.944 41.4053 4.252C41.8813 4.56 42.2499 4.994 42.5113 5.554C42.7726 6.10467 42.9033 6.744 42.9033 7.472C42.9033 8.2 42.7726 8.83933 42.5113 9.39C42.2499 9.93133 41.8813 10.3513 41.4053 10.65C40.9386 10.9487 40.3926 11.098 39.7673 11.098C39.2166 11.098 38.7359 10.9767 38.3253 10.734C37.9146 10.4913 37.6019 10.146 37.3873 9.698V14.024H36.2533V5.932C36.2533 5.204 36.2159 4.546 36.1413 3.958H37.2193L37.3313 5.316C37.5273 4.83067 37.8353 4.45733 38.2553 4.196C38.6846 3.92533 39.1886 3.79 39.7673 3.79ZM39.5573 10.16C40.2479 10.16 40.7799 9.92667 41.1533 9.46C41.5359 8.99333 41.7273 8.33067 41.7273 7.472C41.7273 6.61333 41.5359 5.946 41.1533 5.47C40.7706 4.98467 40.2386 4.742 39.5573 4.742C38.8573 4.742 38.3206 4.97533 37.9473 5.442C37.5739 5.90867 37.3873 6.576 37.3873 7.444C37.3873 8.312 37.5739 8.984 37.9473 9.46C38.3206 9.92667 38.8573 10.16 39.5573 10.16ZM50.5158 3.958L47.2258 11.644C46.8804 12.4467 46.4464 13.0347 45.9238 13.408C45.4011 13.7813 44.7571 14.038 43.9918 14.178L43.7538 13.296C44.4164 13.1467 44.9158 12.946 45.2518 12.694C45.5971 12.4513 45.8818 12.0733 46.1058 11.56L46.3858 10.93L43.4038 3.958H44.5938L46.9738 9.768L49.3818 3.958H50.5158ZM54.8032 3.79C55.0366 3.79 55.2512 3.818 55.4472 3.874L55.4192 4.91C55.2046 4.83533 54.9572 4.798 54.6772 4.798C53.9959 4.798 53.4872 5.01267 53.1512 5.442C52.8246 5.862 52.6612 6.37533 52.6612 6.982V11H51.5272V5.932C51.5272 5.204 51.4899 4.546 51.4152 3.958H52.4932L52.6052 5.26C52.7826 4.784 53.0672 4.42 53.4592 4.168C53.8512 3.916 54.2992 3.79 54.8032 3.79ZM56.3615 3.958H57.4955V11H56.3615V3.958ZM57.6355 0.976V2.264H56.2495V0.976H57.6355ZM65.7315 3.958V10.944C65.7315 11.9893 65.4608 12.778 64.9195 13.31C64.3875 13.8513 63.5988 14.122 62.5535 14.122C61.4801 14.122 60.5561 13.8793 59.7815 13.394L59.9775 12.47C60.4255 12.722 60.8455 12.904 61.2375 13.016C61.6388 13.128 62.0775 13.184 62.5535 13.184C63.2348 13.184 63.7481 13.002 64.0935 12.638C64.4388 12.2833 64.6115 11.7513 64.6115 11.042V9.376C64.3968 9.824 64.0795 10.174 63.6595 10.426C63.2488 10.6687 62.7588 10.79 62.1895 10.79C61.5735 10.79 61.0228 10.6453 60.5375 10.356C60.0615 10.0667 59.6928 9.656 59.4315 9.124C59.1701 8.592 59.0395 7.98067 59.0395 7.29C59.0395 6.59933 59.1701 5.988 59.4315 5.456C59.6928 4.924 60.0615 4.51333 60.5375 4.224C61.0228 3.93467 61.5735 3.79 62.1895 3.79C62.7495 3.79 63.2348 3.91133 63.6455 4.154C64.0655 4.39667 64.3828 4.73733 64.5975 5.176V3.958H65.7315ZM62.4135 9.838C63.0948 9.838 63.6268 9.614 64.0095 9.166C64.4015 8.70867 64.5975 8.08333 64.5975 7.29C64.5975 6.49667 64.4015 5.876 64.0095 5.428C63.6268 4.97067 63.0948 4.742 62.4135 4.742C61.7228 4.742 61.1768 4.97067 60.7755 5.428C60.3835 5.876 60.1875 6.49667 60.1875 7.29C60.1875 8.08333 60.3835 8.70867 60.7755 9.166C61.1768 9.614 61.7228 9.838 62.4135 9.838ZM71.1847 3.79C72.874 3.79 73.7187 4.71867 73.7187 6.576V11H72.5847V6.632C72.5847 5.97867 72.454 5.50267 72.1927 5.204C71.9313 4.896 71.5207 4.742 70.9607 4.742C70.3073 4.742 69.7847 4.94267 69.3927 5.344C69.0007 5.74533 68.8047 6.28667 68.8047 6.968V11H67.6707V0.695999H68.8047V5.106C69.0287 4.67667 69.346 4.35 69.7567 4.126C70.1767 3.902 70.6527 3.79 71.1847 3.79ZM77.1341 4.854V8.704C77.1341 9.22667 77.2415 9.59533 77.4561 9.81C77.6708 10.0153 77.9741 10.118 78.3661 10.118C78.6275 10.118 78.8795 10.076 79.1221 9.992V10.958C78.8328 11.0513 78.5061 11.098 78.1421 11.098C77.4701 11.098 76.9428 10.9113 76.5601 10.538C76.1868 10.1553 76.0001 9.59533 76.0001 8.858V4.854H74.6281V3.958H76.0001V2.152L77.1341 1.746V3.958H79.1501V4.854H77.1341ZM90.173 10.034V11H83.761V10.132L87.247 6.268C87.7137 5.74533 88.0544 5.274 88.269 4.854C88.4837 4.434 88.591 4.014 88.591 3.594C88.591 3.04333 88.4324 2.62333 88.115 2.334C87.7977 2.03533 87.345 1.886 86.757 1.886C85.805 1.886 84.8624 2.26867 83.929 3.034L83.495 2.152C83.887 1.77867 84.3817 1.48 84.979 1.256C85.5764 1.032 86.1784 0.92 86.785 0.92C87.6997 0.92 88.423 1.158 88.955 1.634C89.487 2.10067 89.753 2.73533 89.753 3.538C89.753 4.10733 89.6224 4.658 89.361 5.19C89.109 5.71267 88.6844 6.30067 88.087 6.954L85.245 10.034H90.173ZM94.9556 11.112C93.8169 11.112 92.9489 10.6827 92.3516 9.824C91.7636 8.956 91.4696 7.68667 91.4696 6.016C91.4696 4.34533 91.7636 3.08067 92.3516 2.222C92.9489 1.354 93.8169 0.92 94.9556 0.92C96.0942 0.92 96.9576 1.354 97.5456 2.222C98.1429 3.08067 98.4416 4.34067 98.4416 6.002C98.4416 7.67267 98.1429 8.942 97.5456 9.81C96.9576 10.678 96.0942 11.112 94.9556 11.112ZM94.9556 10.146C95.7489 10.146 96.3322 9.81 96.7056 9.138C97.0882 8.466 97.2796 7.42067 97.2796 6.002C97.2796 4.59267 97.0929 3.55667 96.7196 2.894C96.3462 2.23133 95.7582 1.9 94.9556 1.9C94.1622 1.9 93.5742 2.23133 93.1916 2.894C92.8182 3.55667 92.6316 4.59267 92.6316 6.002C92.6316 7.41133 92.8182 8.45667 93.1916 9.138C93.5742 9.81 94.1622 10.146 94.9556 10.146ZM106.486 10.034V11H100.074V10.132L103.56 6.268C104.027 5.74533 104.367 5.274 104.582 4.854C104.797 4.434 104.904 4.014 104.904 3.594C104.904 3.04333 104.745 2.62333 104.428 2.334C104.111 2.03533 103.658 1.886 103.07 1.886C102.118 1.886 101.175 2.26867 100.242 3.034L99.8081 2.152C100.2 1.77867 100.695 1.48 101.292 1.256C101.889 1.032 102.491 0.92 103.098 0.92C104.013 0.92 104.736 1.158 105.268 1.634C105.8 2.10067 106.066 2.73533 106.066 3.538C106.066 4.10733 105.935 4.658 105.674 5.19C105.422 5.71267 104.997 6.30067 104.4 6.954L101.558 10.034H106.486ZM114.419 10.034V11H108.861V10.034H111.059V2.46L109.015 3.762V2.656L111.563 1.032H112.221V10.034H114.419ZM126.394 8.438H121.186L120.08 11H118.89L123.272 1.032H124.28L128.662 11H127.486L126.394 8.438ZM125.988 7.486L123.79 2.362L121.592 7.486H125.988ZM133.287 3.79C134.976 3.79 135.821 4.71867 135.821 6.576V11H134.687V6.632C134.687 5.97867 134.556 5.50267 134.295 5.204C134.033 4.896 133.623 4.742 133.063 4.742C132.409 4.742 131.887 4.94267 131.495 5.344C131.103 5.74533 130.907 6.28667 130.907 6.968V11H129.773V5.932C129.773 5.204 129.735 4.546 129.661 3.958H130.739L130.851 5.218C131.065 4.76067 131.387 4.41067 131.817 4.168C132.246 3.916 132.736 3.79 133.287 3.79ZM137.724 3.958H138.858V11H137.724V3.958ZM138.998 0.976V2.264H137.612V0.976H138.998ZM148.634 3.79C150.193 3.79 150.972 4.71867 150.972 6.576V11H149.838V6.632C149.838 5.96933 149.722 5.48867 149.488 5.19C149.264 4.89133 148.896 4.742 148.382 4.742C147.785 4.742 147.318 4.94267 146.982 5.344C146.646 5.74533 146.478 6.29133 146.478 6.982V11H145.344V6.632C145.344 5.97867 145.228 5.50267 144.994 5.204C144.761 4.896 144.388 4.742 143.874 4.742C143.277 4.742 142.806 4.94267 142.46 5.344C142.124 5.74533 141.956 6.29133 141.956 6.982V11H140.822V5.932C140.822 5.204 140.785 4.546 140.71 3.958H141.788L141.9 5.19C142.096 4.742 142.386 4.39667 142.768 4.154C143.16 3.91133 143.613 3.79 144.126 3.79C144.686 3.79 145.144 3.902 145.498 4.126C145.853 4.35 146.114 4.69533 146.282 5.162C146.497 4.742 146.81 4.41067 147.22 4.168C147.64 3.916 148.112 3.79 148.634 3.79ZM159.091 3.958V11H157.971V9.726C157.766 10.1647 157.453 10.5053 157.033 10.748C156.622 10.9813 156.142 11.098 155.591 11.098C154.966 11.098 154.415 10.9487 153.939 10.65C153.472 10.3513 153.108 9.93133 152.847 9.39C152.595 8.83933 152.469 8.2 152.469 7.472C152.469 6.744 152.6 6.10467 152.861 5.554C153.122 4.994 153.486 4.56 153.953 4.252C154.429 3.944 154.975 3.79 155.591 3.79C156.142 3.79 156.622 3.91133 157.033 4.154C157.444 4.39667 157.756 4.73733 157.971 5.176V3.958H159.091ZM155.815 10.16C156.506 10.16 157.038 9.92667 157.411 9.46C157.784 8.984 157.971 8.312 157.971 7.444C157.971 6.576 157.784 5.90867 157.411 5.442C157.038 4.97533 156.506 4.742 155.815 4.742C155.124 4.742 154.583 4.98467 154.191 5.47C153.808 5.946 153.617 6.61333 153.617 7.472C153.617 8.33067 153.808 8.99333 154.191 9.46C154.574 9.92667 155.115 10.16 155.815 10.16ZM161.045 0.695999H162.179V11H161.045V0.695999ZM167.447 11.112C165.889 11.112 164.647 10.692 163.723 9.852L164.157 8.97C164.652 9.39 165.156 9.68867 165.669 9.866C166.183 10.0433 166.78 10.132 167.461 10.132C168.264 10.132 168.88 9.978 169.309 9.67C169.748 9.35267 169.967 8.90933 169.967 8.34C169.967 8.004 169.86 7.73333 169.645 7.528C169.44 7.31333 169.165 7.14533 168.819 7.024C168.483 6.90267 168.031 6.77667 167.461 6.646C166.696 6.478 166.066 6.296 165.571 6.1C165.077 5.904 164.675 5.624 164.367 5.26C164.059 4.88667 163.905 4.40133 163.905 3.804C163.905 3.23467 164.055 2.73533 164.353 2.306C164.652 1.86733 165.072 1.52667 165.613 1.284C166.164 1.04133 166.803 0.92 167.531 0.92C168.222 0.92 168.866 1.02733 169.463 1.242C170.061 1.45667 170.565 1.76933 170.975 2.18L170.527 3.062C170.061 2.66067 169.585 2.36667 169.099 2.18C168.623 1.99333 168.101 1.9 167.531 1.9C166.757 1.9 166.15 2.068 165.711 2.404C165.273 2.73067 165.053 3.18333 165.053 3.762C165.053 4.266 165.245 4.644 165.627 4.896C166.01 5.148 166.598 5.36733 167.391 5.554C168.25 5.75933 168.922 5.95067 169.407 6.128C169.902 6.296 170.313 6.55733 170.639 6.912C170.966 7.25733 171.129 7.71933 171.129 8.298C171.129 8.858 170.98 9.35267 170.681 9.782C170.383 10.202 169.953 10.5287 169.393 10.762C168.843 10.9953 168.194 11.112 167.447 11.112ZM178.734 3.958L175.444 11.644C175.099 12.4467 174.665 13.0347 174.142 13.408C173.619 13.7813 172.975 14.038 172.21 14.178L171.972 13.296C172.635 13.1467 173.134 12.946 173.47 12.694C173.815 12.4513 174.1 12.0733 174.324 11.56L174.604 10.93L171.622 3.958H172.812L175.192 9.768L177.6 3.958H178.734ZM182.002 11.098C180.817 11.098 179.879 10.7947 179.188 10.188L179.566 9.348C179.949 9.64667 180.336 9.86133 180.728 9.992C181.12 10.1227 181.559 10.188 182.044 10.188C182.576 10.188 182.978 10.0993 183.248 9.922C183.528 9.73533 183.668 9.46933 183.668 9.124C183.668 8.844 183.575 8.62 183.388 8.452C183.202 8.284 182.894 8.15333 182.464 8.06L181.274 7.78C180.686 7.64933 180.229 7.416 179.902 7.08C179.585 6.744 179.426 6.34267 179.426 5.876C179.426 5.26 179.674 4.76067 180.168 4.378C180.663 3.986 181.316 3.79 182.128 3.79C182.623 3.79 183.09 3.86933 183.528 4.028C183.967 4.18667 184.336 4.41533 184.634 4.714L184.256 5.54C183.594 4.98933 182.884 4.714 182.128 4.714C181.624 4.714 181.232 4.812 180.952 5.008C180.682 5.19467 180.546 5.46067 180.546 5.806C180.546 6.09533 180.63 6.324 180.798 6.492C180.976 6.66 181.256 6.79067 181.638 6.884L182.828 7.178C183.482 7.32733 183.967 7.56067 184.284 7.878C184.602 8.186 184.76 8.592 184.76 9.096C184.76 9.70267 184.513 10.188 184.018 10.552C183.524 10.916 182.852 11.098 182.002 11.098ZM187.773 4.854V8.704C187.773 9.22667 187.881 9.59533 188.095 9.81C188.31 10.0153 188.613 10.118 189.005 10.118C189.267 10.118 189.519 10.076 189.761 9.992V10.958C189.472 11.0513 189.145 11.098 188.781 11.098C188.109 11.098 187.582 10.9113 187.199 10.538C186.826 10.1553 186.639 9.59533 186.639 8.858V4.854H185.267V3.958H186.639V2.152L187.773 1.746V3.958H189.789V4.854H187.773ZM196.812 7.444H191.646C191.655 8.34 191.861 9.01667 192.262 9.474C192.673 9.93133 193.265 10.16 194.04 10.16C194.861 10.16 195.617 9.88467 196.308 9.334L196.686 10.16C196.378 10.4493 195.981 10.678 195.496 10.846C195.02 11.014 194.53 11.098 194.026 11.098C192.925 11.098 192.061 10.776 191.436 10.132C190.811 9.47867 190.498 8.58733 190.498 7.458C190.498 6.73933 190.638 6.10467 190.918 5.554C191.198 4.994 191.59 4.56 192.094 4.252C192.598 3.944 193.172 3.79 193.816 3.79C194.749 3.79 195.482 4.098 196.014 4.714C196.546 5.32067 196.812 6.16067 196.812 7.234V7.444ZM193.83 4.672C193.242 4.672 192.761 4.84933 192.388 5.204C192.024 5.55867 191.791 6.058 191.688 6.702H195.79C195.734 6.03933 195.538 5.53533 195.202 5.19C194.875 4.84467 194.418 4.672 193.83 4.672ZM206.107 3.79C207.666 3.79 208.445 4.71867 208.445 6.576V11H207.311V6.632C207.311 5.96933 207.194 5.48867 206.961 5.19C206.737 4.89133 206.368 4.742 205.855 4.742C205.258 4.742 204.791 4.94267 204.455 5.344C204.119 5.74533 203.951 6.29133 203.951 6.982V11H202.817V6.632C202.817 5.97867 202.7 5.50267 202.467 5.204C202.234 4.896 201.86 4.742 201.347 4.742C200.75 4.742 200.278 4.94267 199.933 5.344C199.597 5.74533 199.429 6.29133 199.429 6.982V11H198.295V5.932C198.295 5.204 198.258 4.546 198.183 3.958H199.261L199.373 5.19C199.569 4.742 199.858 4.39667 200.241 4.154C200.633 3.91133 201.086 3.79 201.599 3.79C202.159 3.79 202.616 3.902 202.971 4.126C203.326 4.35 203.587 4.69533 203.755 5.162C203.97 4.742 204.282 4.41067 204.693 4.168C205.113 3.916 205.584 3.79 206.107 3.79Z" fill="white"/>
</g>
<defs>
<filter id="filter0_d_158_312" x="0.206055" y="0.696045" width="212.239" height="21.4819" filterUnits="userSpaceOnUse" color-interpolation-filters="sRGB">
<feFlood flood-opacity="0" result="BackgroundImageFix"/>
<feColorMatrix in="SourceAlpha" type="matrix" values="0 0 0 0 0 0 0 0 0 0 0 0 0 0 0 0 0 0 127 0" result="hardAlpha"/>
<feOffset dy="4"/>
<feGaussianBlur stdDeviation="2"/>
<feComposite in2="hardAlpha" operator="out"/>
<feColorMatrix type="matrix" values="0 0 0 0 0 0 0 0 0 0 0 0 0 0 0 0 0 0 0.25 0"/>
<feBlend mode="normal" in2="BackgroundImageFix" result="effect1_dropShadow_158_312"/>
<feBlend mode="normal" in="SourceGraphic" in2="effect1_dropShadow_158_312" result="shape"/>
</filter>
</defs>
</svg>
