<svg version="1.2" xmlns="http://www.w3.org/2000/svg" viewBox="0 0 1597 337" width="1597" height="337">
	<title>Logo AnimalSystem</title>
	<style>
		.s0 { fill: #000000 } 
		.s1 { fill: #ffffff } 
	</style>
	<g id="Background">
		<path id="Path 0" class="s0" d="m0 0h1597v337h-1597v-168.5z"/>
		<path id="Path 1" class="s1" d="m16 16h305v305h-305v-152.5zm972.5 91.4c6.2 0.2 10.9 1.1 15 2.7 4.1 1.5 7.8 4 11.7 7.8 4.7 4.5 5.8 6.2 5.8 8.8 0 1.8-0.7 4.6-1.5 6.3-0.8 1.6-2.9 3.7-4.5 4.5-1.6 0.8-4.5 1.5-6.2 1.5-1.8 0-6-1.3-9.3-3-4.7-2.3-7.4-2.9-12.2-3-3.7 0-7.6 0.6-9.3 1.5-1.6 0.8-3.3 2.5-3.6 3.7-0.3 1.3-0.4 3.4-0.1 4.8 0.3 1.4 1.8 3.1 3.4 3.8 1.5 0.8 8 2.4 14.3 3.7 6.3 1.2 13.5 3.2 16 4.4 2.5 1.1 6.1 3.4 8 4.9 1.9 1.6 4.7 5.3 6.3 8.3 2.2 4.4 2.7 6.7 2.7 12.4 0 5.6-0.6 8.2-2.8 13-1.9 4-4.7 7.6-8.3 10.8-3 2.7-7.9 5.8-10.9 6.9-3.6 1.4-8.8 2.3-15 2.6-7.3 0.4-10.8 0.1-15-1.3-3-1-7.7-2.9-10.4-4.4-2.7-1.4-6.9-4.9-9.3-7.6-2.4-2.8-5.1-6.8-6-9-0.8-2.3-1.3-5.2-0.9-6.8 0.3-1.5 1.8-4.1 3.4-5.8 1.5-1.6 4.2-3.4 6-4 1.7-0.5 4.2-0.6 5.5-0.2 1.2 0.3 5 3.3 8.5 6.5 3.8 3.6 7.6 6.2 10 6.8 2 0.5 5.1 1 6.7 1 1.6 0 4.6-0.4 6.5-1 1.9-0.5 4.3-1.7 5.3-2.7 1.2-1.2 1.6-2.6 1.3-4.1-0.3-1.2-1.4-2.6-2.3-3.1-1-0.5-7-2.1-13.3-3.5-6.3-1.4-14.2-3.9-17.5-5.5-3.3-1.6-7.7-4.7-9.9-6.8-2.1-2.1-4.8-5.8-5.9-8.3-1.6-3.4-2.1-6.5-2.1-12.5 0-5.8 0.5-9.2 2-12.5 1.1-2.5 4-6.7 6.5-9.3 2.4-2.7 6-5.8 7.9-7 1.9-1.2 6-2.9 9-3.9 4.2-1.4 7.7-1.7 14.5-1.4zm178-0.3c3.3-0.1 8.6 0.6 11.8 1.4 3.1 0.8 7.5 2.4 9.7 3.5 2.2 1.1 6 4 8.5 6.5 4 4 4.5 5 4.5 9 0 3.8-0.6 5.1-3.4 8-2.8 2.9-4.1 3.5-7.5 3.5-2.6 0-6.4-1.1-10.1-3-5-2.5-7.2-3-13.1-3-6.5 0-7.3 0.2-10 3-1.6 1.6-2.9 3.9-2.9 5 0 1.1 1 3 2.3 4.3 1.7 1.8 5 2.9 13.7 4.6 6.3 1.3 13.8 3.1 16.5 4.2 2.8 1 7 3.5 9.5 5.7 2.5 2.1 5.6 6.1 7 8.8 1.9 3.8 2.4 6.4 2.4 11.9 0 5.3-0.6 8.3-2.5 12.5-1.4 3-4.5 7.5-6.9 10-2.5 2.4-7.4 5.8-11 7.5-6.1 2.8-7.2 3-18.5 3-10 0-12.9-0.4-17.5-2.3-3-1.2-7.7-3.9-10.4-5.9-2.7-2.1-6.3-5.8-8-8.2-2.3-3.2-3.2-5.7-3.5-9.5-0.3-4.5 0-5.5 2.5-8.4 1.6-1.8 4.2-3.8 5.9-4.3 1.7-0.5 4.3-0.6 6-0.2 1.7 0.4 5.6 3.3 8.8 6.5 3.7 3.8 7 6.1 9.5 6.8 2 0.5 5 1 6.7 1 1.7 0 4.7-0.5 6.8-1 2-0.6 4.4-1.7 5.2-2.5 0.8-0.8 1.5-2.4 1.5-3.5 0-1.1-1-2.6-2.2-3.4-1.3-0.8-7.3-2.6-13.3-3.9-6-1.3-13.7-3.7-17-5.3-3.3-1.5-7.8-4.4-10-6.5-2.2-2-5.1-6-6.3-9-1.8-4.2-2.4-7.1-2.3-12.9 0.1-5.6 0.7-8.8 2.4-12.5 1.3-2.8 3.9-6.8 5.9-9 1.9-2.2 6.2-5.4 9.4-7.2 3.3-1.8 7.7-3.6 9.9-4.1 2.2-0.6 6.7-1 10-1.1zm-715.6 0.9c2 0 5 0.8 6.6 1.8 1.7 1 4 3.8 5.1 6.3 1.2 2.4 9.5 21.5 18.4 42.4 9 20.9 16.5 39.6 16.8 41.5 0.3 2.1-0.2 4.8-1.2 6.7-0.9 1.8-2.9 4-4.6 4.8-1.6 0.8-4.6 1.5-6.5 1.5-1.9 0-4.7-0.7-6.2-1.5-1.6-0.9-3.4-2.6-4.2-3.8-0.8-1.2-2.9-5.8-7.9-18.2l-33.2-0.5-3.7 9.6c-2.1 5.3-4.9 10.6-6.1 11.7-1.6 1.4-4.1 2.3-7 2.6-3 0.2-5.9-0.2-7.9-1.3-2-0.9-3.9-3-4.8-5.1-0.8-1.9-1.5-4.5-1.5-5.8 0-1.2 8.5-21.6 18.8-45.2 16.9-38.6 19.1-43.2 22.2-45.3 1.9-1.2 4.9-2.2 6.9-2.2zm71.9 0.1c1.2-0.1 3.8 0.7 5.8 1.6 2.9 1.4 7.8 7.3 22.3 27 10.2 13.9 18.9 25 19.4 24.8 0.4-0.3 0.7-10.7 0.8-46l3.8-3.8c3.2-3.1 4.6-3.7 8-3.7 2.2 0 5.5 0.7 7.1 1.5 1.7 0.8 3.7 2.8 4.5 4.5 1.3 2.5 1.5 9.8 1.5 46.5 0 36.7-0.2 44-1.5 46.5-0.8 1.6-2.8 3.7-4.5 4.5-1.6 0.8-4.6 1.5-6.5 1.5-1.9 0-4.7-0.6-6.1-1.3-1.6-0.7-10.4-11.7-40.9-53.2l-0.5 23.5c-0.4 18.6-0.8 24-2 25.7-0.8 1.2-2.7 2.9-4.2 3.8-1.6 0.8-4.8 1.5-7.3 1.5-3.3 0-5.3-0.6-7.5-2.5-1.7-1.4-3.4-4.2-4-6.3-0.6-2.1-1-20.5-1-44 0-26.1 0.4-41.2 1.1-43 0.6-1.5 1.9-3.8 3.1-5.1 1.1-1.3 3-2.8 4.2-3.2 1.1-0.4 3.1-0.8 4.4-0.8zm104.4-0.1c2.9 0 5.5 0.7 7.8 2.3 2.1 1.3 4 3.7 4.7 5.7 0.8 2.5 1.2 15.3 1.2 44 0.1 23.8-0.3 42-0.9 44.2-0.6 2.1-2.3 4.9-4 6.3-2.2 1.9-4.2 2.5-7.5 2.5-2.5 0-5.7-0.6-7.2-1.4-1.6-0.7-3.6-3-4.5-5-1.6-3.3-1.8-7.4-1.3-91.8l3.7-3.4c3-2.7 4.6-3.4 8-3.4zm52.1 0c2.8 0 4.6 0.8 7.2 3.2 2.9 2.7 5.1 7.2 11.5 22.8 4.4 10.7 9.2 22.3 10.7 25.8 1.6 3.4 3.1 5.9 3.5 5.5 0.3-0.4 5-11.6 10.3-24.8 5.4-13.2 10.5-25.2 11.4-26.7 0.9-1.5 2.8-3.4 4.4-4.3 1.5-0.8 4.2-1.5 6-1.5 1.7 0 4.7 0.9 6.5 2 1.7 1.1 3.9 3 4.7 4.2 0.9 1.5 3.5 16.9 7 42.8 3 22.3 5.5 42 5.5 43.7 0 1.8-0.7 4.6-1.5 6.3-0.8 1.6-2.9 3.7-4.5 4.5-1.6 0.8-5 1.5-7.5 1.5-3.7 0-5.1-0.6-7.8-3.3-2.3-2.2-3.6-4.5-4-7.2-0.3-2.2-1.4-10-2.4-17.3-1-7.3-2.2-13.1-2.7-13-0.5 0.2-3.7 7.3-7.2 15.8-3.5 8.5-7 16.8-7.9 18.5-0.8 1.6-2.9 3.8-4.5 4.7-1.7 1-4.6 1.8-6.5 1.8-1.9 0-4.9-0.7-6.5-1.5-1.6-0.8-3.8-3.2-4.9-5.3-1-2-4.6-10.7-8.1-19.2-3.4-8.5-6.6-16-7-16.5-0.5-0.6-1 0.1-1.3 1.5-0.3 1.4-1.5 9.2-2.7 17.5-1.2 8.2-2.8 16.2-3.6 17.7-0.8 1.6-2.8 3.5-4.4 4.3-1.6 0.8-4.6 1.5-6.5 1.5-1.9 0-4.9-0.7-6.5-1.5-1.6-0.8-3.7-2.9-4.5-4.5-0.8-1.7-1.5-4.5-1.5-6.3 0-1.7 2.7-21.4 6-43.7 3.7-24.5 6.6-41.4 7.5-42.8 0.8-1.2 3-3.1 4.8-4.2 1.7-1.1 4.9-2 7-2zm140.2 0c3.7 0 5.1 0.6 7.9 3.2 2.6 2.6 6.8 11.5 20.5 43.3 9.4 22 17.5 41.3 18 43 0.6 1.8 0.6 4.4 0 6.7-0.5 2.2-2.2 4.9-3.9 6.3-2.1 1.8-4.2 2.5-7.2 2.5-2.9 0-5.5-0.7-7.8-2.3-2.8-1.8-4.3-4.2-11.5-21.7l-32.9 0.5-2.7 6.5c-1.5 3.6-3.4 8.1-4.3 10-0.8 2-2.9 4.3-4.8 5.4-2.5 1.4-4.5 1.7-8.3 1.3-3.9-0.4-5.6-1.2-7.7-3.6-2.1-2.4-2.8-4.1-2.8-7.4 0-3.3 4-13.3 18-45.7 14.6-33.5 18.8-42.1 21.5-44.8 2.9-2.6 4.3-3.2 8-3.2zm71.4 0c2.2 0 5.5 0.7 7.1 1.5 1.6 0.8 3.7 2.5 4.5 3.7 1.3 2 1.5 7.9 1.5 74.8h14.3c12.4 0 14.6 0.3 17.5 2 1.7 1.1 3.9 3.3 4.7 5 0.8 1.6 1.5 4.3 1.5 6 0 1.6-0.7 4.3-1.5 6-0.8 1.6-2.9 3.7-4.5 4.5-2.4 1.2-7.5 1.5-25.7 1.5-15.9-0.1-23.5-0.4-25-1.3-1.3-0.7-3.2-2.6-4.3-4.2-1.9-2.9-2-4.6-1.8-91.7l3.8-3.9c3.2-3.3 4.4-3.9 7.9-3.9zm153.6 0.5c2.4 0.2 4.9 1.4 6.2 2.7 1.3 1.3 7.1 10.1 13 19.7 6 9.5 11.2 17.4 11.7 17.5 0.5 0 5.8-7.8 11.8-17.4 6-9.6 11.8-18.5 13.1-19.8 1.4-1.5 3.8-2.5 6.7-2.8 3.4-0.4 5.3 0 7.8 1.5 1.7 1.2 3.9 3.6 4.8 5.3 1 2 1.5 4.7 1.2 6.8-0.3 2.3-5.8 11.7-32.8 53.5v14.2c0 10.7-0.4 15.1-1.5 17.3-0.8 1.7-2.8 3.7-4.5 4.5-1.7 0.8-4.6 1.5-6.5 1.5-1.9 0-4.8-0.7-6.5-1.5-1.7-0.8-3.7-2.9-4.5-4.5-1.1-2.2-1.5-6.6-1.5-31.5l-4.9-7.5c-2.6-4.1-10.1-15.6-16.5-25.5-9.4-14.4-11.7-18.7-11.6-21.5 0-1.9 1-5 2.2-6.8 1.2-1.8 3.6-4 5.2-4.8 1.9-0.8 4.7-1.2 7.1-0.9zm206.7-0.5c24.9 0 32.4 0.3 34.6 1.4 1.5 0.7 3.6 2.6 4.6 4.2 1.1 1.7 1.9 4.6 1.9 6.9 0 2.2-0.5 5-1.1 6.2-0.7 1.3-2.7 3.2-4.4 4.3-2.7 1.6-5.1 2-22.8 2v35.5c0 29.6-0.3 36-1.5 38.5-0.8 1.6-2.8 3.7-4.5 4.5-1.7 0.8-4.6 1.5-6.5 1.5-1.9 0-4.7-0.6-6.1-1.3-1.4-0.6-3.3-2.3-4.2-3.7-1.5-2.2-1.7-6.8-2.2-75h-9.7c-8.6 0.1-10.2-0.2-13.3-2.3-2.5-1.6-3.9-3.5-4.9-6.7-1.1-3.8-1.1-5 0.1-8 0.8-1.9 2.9-4.5 4.8-5.8 3.3-2.2 3.9-2.2 35.2-2.2zm111.8 0l3 2.5c1.7 1.4 3.5 4.2 4.1 6.2 0.8 2.7 0.8 4.8 0.1 7.3-0.6 1.9-2.5 4.7-4.1 6.2-3.1 2.8-3.1 2.8-34.1 2.8v15h9.5c5.2 0 10.7 0.5 12.3 1.1 1.5 0.6 3.7 2 5 3.2 1.3 1.2 2.7 3.8 3.2 5.7q0.9 3.5-0.3 7c-0.7 2-2.6 4.4-4.7 5.7-3.1 2.1-4.7 2.4-25 2.3v15h14.8c12.9 0 15.1 0.2 18 2 1.7 1.1 3.9 3.6 4.7 5.5 0.8 1.9 1.5 4.4 1.5 5.5 0 1.1-0.7 3.5-1.5 5.2-0.9 1.8-2.9 4.1-4.5 5-2.6 1.6-5.9 1.8-26.5 1.8-20.6 0-23.9-0.2-26.5-1.8-1.7-0.9-3.7-3.2-4.5-5-1.3-2.7-1.5-10.3-1.6-88.7l2.4-3.5c1.3-1.9 3.4-4 4.8-4.7 1.7-0.9 9.1-1.3 49.9-1.3zm40 0.5c3.3 0.3 5.2 1.1 7.2 3.2 1.7 1.8 6.5 12 13.2 28.3 5.7 14 10.7 25.5 11.1 25.5 0.4 0 5.1-10.8 10.4-24 5.4-13.2 10.5-25.5 11.4-27.3 1-1.7 3-3.9 4.7-4.7 1.7-0.8 4.5-1.5 6.3-1.5 1.7 0 4.7 0.9 6.5 2 1.7 1.1 3.9 3 4.6 4.2 0.9 1.4 3.6 18 7 43.5 3.1 22.7 5.6 42.4 5.6 43.8 0 1.4-0.7 3.8-1.5 5.5-0.8 1.7-2.8 3.7-4.5 4.5-1.7 0.8-5 1.5-7.5 1.5-3.3 0-5.3-0.6-7.5-2.5-1.7-1.4-3.3-3.5-3.6-4.8-0.4-1.2-1.6-9.3-2.8-18-1.1-8.7-2.6-15.8-3.1-15.8-0.5 0-4.2 8-8.2 17.8-5.3 13.3-7.9 18.5-10.2 20.5-2.4 2.1-4.1 2.8-7.3 2.8-2.4 0-5.6-0.8-7.3-1.8-1.7-1-3.6-3-4.3-4.3-0.6-1.3-4.2-9.8-8-18.9-3.7-9.1-7.2-16.7-7.7-16.8-0.6-0.2-2 6.8-3.3 16-1.3 9-3.1 17.8-4 19.7-0.9 1.9-3 4-4.7 4.9q-3 1.5-8 0.9c-4.2-0.4-5.5-1-7.7-3.8-1.5-1.9-2.9-4.5-3.1-5.9-0.1-1.4 2.5-21.2 5.8-44 3.4-22.8 6.6-42.4 7.2-43.5 0.6-1.1 2.2-3 3.5-4.1 1.2-1.2 3-2.4 3.8-2.7 0.8-0.4 3.5-0.5 6-0.2z"/>
		<path id="Path 2" class="s0" d="m170.5 82.7c2.2 0.3 5.3 1.3 6.9 2.2 1.6 0.9 4.1 3.2 5.6 5.1 1.5 1.9 15.4 33.2 31 69.5 23 53.5 28.4 67 28.8 71.5 0.2 3.5-0.2 7-1.2 9.7-0.9 2.5-3 5.3-4.9 6.7-1.7 1.3-4.8 2.8-6.7 3.5-1.9 0.6-5.1 1.1-7 1.1-1.9 0-5.9-1.2-8.9-2.7-3.8-2-6.1-4-7.7-6.8-1.2-2.2-4.4-9.2-7-15.5-2.6-6.3-5.2-12.1-5.8-12.8-0.9-1-6.6-1.2-52.9-0.7l-6.1 15.1c-3.4 8.3-6.8 15.8-7.6 16.8-0.8 1-3.8 2.8-6.5 4.2-2.8 1.3-6.6 2.4-8.5 2.4-1.9 0-5.2-0.5-7.3-1-2-0.6-5.3-2.5-7.3-4.3-1.9-1.7-4.2-5-5.1-7.2-0.9-2.4-1.3-5.8-1.1-8.5 0.3-3 9.9-26.2 29.2-70.5 15.8-36.3 29.8-67.5 30.9-69.4 1.2-1.8 3.8-4.3 5.7-5.4 1.9-1.2 4.8-2.4 6.5-2.8 1.7-0.4 4.8-0.4 7-0.2zm279.4 67.3c0.3-0.1 1.8 2.6 3.4 6 1.5 3.3 2.7 6.4 2.7 7 0 0.6-2.5 1-5.5 1-3.7 0-5.5-0.4-5.5-1.2 0-0.7 1-3.9 2.2-7 1.2-3.2 2.4-5.8 2.7-5.8zm369.3 0c0.6 0 2 2.8 3.2 6.2 1.1 3.5 2.2 6.6 2.4 7 0.1 0.5-2.5 0.8-5.8 0.8-3.3 0-6-0.2-6-0.5 0-0.3 1.2-3.4 2.6-7 1.4-3.6 3-6.5 3.6-6.5z"/>
		<path id="Path 3" class="s1" d="m167.2 149.7c0.4 0.4 2.6 5.6 5 11.5 2.4 5.9 4.1 11 3.9 11.3-0.2 0.3-4.6 0.5-9.8 0.5-5.1 0-9.3-0.2-9.3-0.5 0-0.3 2.1-5.7 4.7-12.1 2.7-6.3 5.1-11.2 5.5-10.7z"/>
	</g>
</svg>