<svg width="344" height="292" viewBox="0 0 344 292" fill="none" xmlns="http://www.w3.org/2000/svg">
<rect width="184" height="184" fill="#9C9CFF"/>
<path d="M50.7518 31C51.1452 31 55.816 35.0683 61.126 40.068C66.4852 45.0676 72.4343 50.8515 77.7443 56.5864L101.59 57.2236C114.718 57.6157 127.108 58.0079 129.124 58.1549C131.139 58.253 133.155 58.449 133.598 58.547C134.139 58.6451 137.826 54.5277 145.054 45.8029C153.117 36.0977 155.919 32.9606 156.804 32.9606C157.394 32.9116 158.132 33.2057 158.476 33.5488C158.771 33.8919 159.509 37.2741 160.099 41.0483C160.885 46.097 161.229 51.0966 161.426 59.9195C161.623 69.4776 161.524 73.3009 160.885 78.5456C160.394 82.1728 159.607 87.0254 159.066 89.3292C158.525 91.6329 157.542 95.2601 156.854 97.4168C156.165 99.5735 154.543 103.593 153.166 106.338C151.839 109.132 150.806 111.533 150.904 111.73C150.954 111.975 152.527 112.808 154.444 113.592C156.362 114.425 158.624 115.553 159.509 116.19C160.59 116.925 161.082 117.66 161.082 118.494C161.082 119.229 160.689 119.915 160.099 120.209C159.312 120.601 158.23 120.258 154.789 118.494C152.429 117.268 149.823 116.19 149.036 116.043C147.709 115.798 147.315 116.043 145.201 118.494C143.923 119.964 142.939 121.288 142.989 121.337C143.087 121.435 145.988 123.003 149.528 124.817C153.019 126.63 156.313 128.493 156.804 128.934C157.296 129.375 157.64 130.209 157.542 130.699C157.444 131.189 157.001 131.875 156.559 132.169C155.87 132.61 154.199 131.924 147.61 128.542C141.563 125.454 139.301 124.523 138.76 124.866C138.367 125.16 136.548 126.385 131.336 129.964L134.63 133.444C136.499 135.306 138.514 137.855 139.203 139.08C139.891 140.306 140.334 141.727 140.186 142.267C140.039 142.806 139.596 143.345 139.203 143.492C138.809 143.639 138.121 143.59 137.679 143.345C137.236 143.149 135.909 141.678 134.778 140.061C133.647 138.443 131.533 136.042 130.058 134.767C128.14 133.052 127.108 132.463 126.419 132.659C125.879 132.806 123.224 133.689 120.519 134.62C117.815 135.551 113.489 136.728 110.932 137.169C107.392 137.757 104.442 137.904 98.6402 137.708C92.5435 137.512 90.036 137.218 86.1027 136.189C83.3985 135.453 78.7768 133.689 75.7777 132.218C72.7785 130.797 69.1893 128.689 65.2068 125.601L59.4052 129.718C56.2585 132.022 52.4727 134.669 51.0468 135.6C49.4735 136.728 48.146 137.267 47.5068 137.12C46.966 136.973 46.4252 136.434 46.2777 135.894C46.1302 135.355 46.3268 134.571 46.6218 134.13C46.966 133.689 50.3585 131.091 54.1443 128.395C57.9302 125.748 61.2243 123.346 61.5193 123.101C61.8143 122.807 61.2735 121.925 59.9952 120.552C58.9135 119.425 57.586 117.906 56.111 115.847L50.4568 118.69C47.3593 120.258 43.4752 122.366 41.8527 123.346C40.2302 124.327 38.4602 125.111 37.9193 125.111C37.3785 125.16 36.641 124.817 36.2968 124.376C36.0018 123.984 35.756 123.248 35.8052 122.807C35.9035 122.366 37.6243 120.994 39.6402 119.817C41.656 118.592 45.4418 116.533 47.9985 115.259C50.5552 113.935 52.9152 112.759 53.161 112.661C53.4068 112.612 53.0135 111.092 52.1777 109.377C51.391 107.661 50.7027 106.191 50.7027 106.142C50.7027 106.093 48.5885 106.485 46.0318 107.024C43.4752 107.514 37.6243 108.887 33.101 110.014C26.7093 111.631 24.6443 112.024 24.0052 111.582C23.5627 111.288 23.1202 110.602 23.0218 110.112C22.9235 109.622 23.1693 108.936 23.5135 108.592C23.8577 108.298 27.5943 107.122 31.7735 106.093C35.9527 105.014 41.2627 103.789 43.5735 103.299C45.8843 102.858 48.0968 102.318 48.4902 102.073C49.1293 101.681 49.1293 101.289 48.3427 98.5442C47.9002 96.8286 47.2118 93.7896 46.8185 91.78C46.4252 89.7703 45.8352 85.1138 45.5402 81.4866C45.0977 77.1241 44.9993 70.9971 45.196 63.5957C45.3435 57.3707 45.8352 49.6751 46.2777 46.4401C46.671 43.205 47.3593 38.7936 47.7527 36.6369C48.146 34.4801 48.4902 32.6665 48.441 32.6175C48.441 32.5685 48.7852 32.1764 49.2277 31.7843C49.6702 31.3431 50.3585 31 50.7518 31Z" fill="black"/>
<path d="M58.029 42.8619C61.274 45.9009 66.7807 51.1947 76.5157 60.8999H80.7931C83.2023 60.9489 95.494 61.243 108.228 61.5861C129.468 62.1743 131.435 62.3213 132.713 63.1546C133.844 63.8899 134.286 63.9879 135.171 63.5467C135.761 63.2526 140.58 57.7628 145.841 51.3907C153.117 42.6169 155.477 40.019 155.723 40.6562C155.871 41.1464 156.313 43.9893 156.657 46.9303C157.051 49.9693 157.346 56.8806 157.346 62.8605C157.296 70.1639 157.051 75.2126 156.461 79.2809C156.018 82.516 154.936 87.8097 154.15 91.0448C153.314 94.2798 151.986 98.5933 151.2 100.603C150.364 102.613 148.938 105.652 148.004 107.367C147.07 109.034 146.037 110.406 145.693 110.406C145.398 110.406 142.792 109.769 139.941 109.034C137.089 108.249 134.434 107.71 134.041 107.857C133.647 108.004 133.156 108.347 132.959 108.642C132.762 108.936 132.566 109.475 132.566 109.818C132.566 110.112 132.861 110.7 133.205 111.043C133.549 111.337 135.811 112.171 138.22 112.808C140.678 113.445 142.792 114.082 142.989 114.278C143.235 114.425 142.301 115.7 138.515 119.474L136.401 118.641C135.221 118.151 133.893 117.759 133.401 117.759C132.959 117.759 132.369 118.151 132.123 118.641C131.877 119.082 131.779 119.817 131.877 120.209C131.976 120.601 132.664 121.288 133.303 121.68C133.991 122.072 134.532 122.513 134.532 122.66C134.532 122.807 134.041 123.199 133.451 123.591C132.811 123.984 131.336 124.964 127.895 127.17L125.781 125.895C124.158 124.915 123.519 124.719 122.732 125.111C122.191 125.405 121.749 126.091 121.749 126.729C121.749 127.317 122.093 128.15 122.486 128.542C123.126 129.179 122.978 129.375 121.11 130.111C119.979 130.552 117.914 131.238 116.586 131.63C115.21 132.022 113.538 132.512 112.751 132.659C111.473 132.954 111.424 132.905 111.67 131.238C111.916 129.62 111.768 129.424 109.31 127.66C107.933 126.581 105.868 124.768 104.836 123.591C103.754 122.415 102.377 120.356 101.738 118.984C101.001 117.415 100.607 115.602 100.607 113.837C100.607 111.779 100.902 110.504 102.033 108.445C103.066 106.485 103.41 105.21 103.311 103.789C103.213 102.564 102.82 101.632 102.23 101.24C101.738 100.897 99.2307 100.505 96.674 100.309C94.1173 100.162 91.5115 100.113 90.8723 100.309C89.9873 100.554 89.8398 100.897 89.9873 102.22C90.0856 103.054 90.774 105.259 91.4623 107.122C92.3473 109.377 92.7407 111.337 92.7407 113.494C92.7407 115.798 92.4457 117.17 91.4132 119.229C90.6265 120.847 88.414 123.689 81.6782 130.601L76.7615 128.101C74.0573 126.729 71.2057 125.111 68.8948 123.297L71.599 121.876C73.6148 120.798 74.3523 120.16 74.4507 119.229C74.549 118.543 74.254 117.71 73.8115 117.268C73.0248 116.582 72.5823 116.729 65.6007 120.454L60.094 114.573L62.7982 113.788C64.3715 113.298 65.699 112.563 66.0431 111.926C66.584 111.043 66.5348 110.749 65.699 109.916C64.7157 108.936 64.7157 108.936 61.1265 109.867C59.209 110.406 57.5373 110.798 57.5373 110.749C57.4882 110.7 56.8982 109.573 54.9807 105.75L58.6682 105.259C61.3232 104.916 62.5523 104.524 62.9457 103.936C63.339 103.299 63.339 102.809 62.9457 102.22C62.454 101.485 61.7165 101.338 53.4073 101.583L52.8665 99.5246C52.6207 98.3482 52.1782 96.7797 51.9323 95.9464C51.6865 95.1131 51.1457 92.3682 50.7523 89.8194C50.3098 87.2705 49.7198 81.9768 49.4248 78.0555C49.0807 73.9872 49.0315 67.6151 49.179 63.1056C49.3757 58.7922 49.7198 53.1553 50.0148 50.6065C50.2607 48.0577 50.7032 44.4305 50.9982 42.5188C51.2932 40.6562 51.6373 38.6956 51.7848 38.2054C52.0307 37.5192 53.2107 38.4015 58.029 42.8619ZM96.8215 117.513L97.4115 119.229C97.7065 120.16 98.7882 122.17 99.7223 123.64C100.656 125.111 102.426 127.219 103.606 128.297C104.786 129.375 106.556 130.846 107.491 131.532C108.425 132.267 109.015 133.052 108.818 133.248C108.572 133.493 105.131 133.689 101.197 133.689C97.1656 133.689 92.6423 133.395 91.0198 133.052C89.3973 132.659 87.6765 132.316 87.1848 132.169C86.5457 132.022 87.1357 131.091 90.0857 127.905C92.4457 125.356 94.3632 122.709 95.3465 120.7L96.8215 117.513Z" fill="#DE8787"/>
<path fill-rule="evenodd" clip-rule="evenodd" d="M60.9289 70.0658L80.8906 70.4579C91.8548 70.654 106.506 70.9971 113.39 71.1932C122.486 71.4873 126.665 71.8304 128.631 72.4186C130.106 72.8107 132.565 73.3989 134.04 73.644C135.711 73.9381 137.727 73.8891 139.35 73.644C141.267 73.2518 142.103 73.3009 142.644 73.742C143.086 74.0851 143.431 75.0164 143.431 75.8497C143.381 76.683 142.939 79.0848 142.398 81.2415C141.857 83.3982 140.628 86.8293 139.645 88.839C138.661 90.8486 136.891 93.7896 135.711 95.3091C134.531 96.8776 132.614 98.7892 131.483 99.5735C130.303 100.358 128.386 101.387 127.156 101.779C125.927 102.22 123.616 102.563 121.994 102.563C120.371 102.563 118.061 102.22 116.831 101.779C115.602 101.387 113.636 100.309 112.456 99.4755C111.276 98.5932 109.506 96.6815 108.522 95.2111C107.539 93.7406 106.408 91.878 106.064 91.0447C105.671 90.2114 104.687 87.3685 102.229 79.771L94.4606 79.4769L93.8706 82.5649C93.5264 84.2805 92.4448 87.2704 91.4123 89.2801C90.3798 91.3388 88.8064 93.5445 87.8231 94.3288C86.8889 95.064 85.1189 96.1914 83.8898 96.7796C82.3164 97.5148 80.6939 97.8089 78.2356 97.8089C75.4823 97.8579 74.2531 97.6128 72.0898 96.5835C70.6148 95.8483 68.4514 94.2798 67.3206 93.0543C66.1406 91.8289 64.6656 89.7703 64.0264 88.4468C63.3873 87.1724 62.4039 84.7216 61.8631 82.957C61.3223 81.1925 60.6339 78.0554 60.3389 75.9477C59.9456 73.1048 59.9456 71.9284 60.3881 71.1442L60.9289 70.0658ZM86.2989 109.818C86.9381 109.965 87.6264 110.504 87.8723 110.994C88.0689 111.435 88.1673 112.269 88.0198 112.808C87.9214 113.347 87.2823 114.033 86.6923 114.327C85.9548 114.719 85.2173 114.719 84.5781 114.425C84.0373 114.18 83.4473 113.494 83.2506 112.906C82.9556 112.122 83.2014 111.533 84.0373 110.651C84.8731 109.769 85.5123 109.524 86.2989 109.818ZM74.5973 110.896C75.0889 111.141 75.6298 111.729 75.8264 112.22C75.9739 112.661 75.9739 113.543 75.8264 114.18C75.6298 114.867 74.9906 115.406 74.1548 115.553C73.2206 115.749 72.5323 115.553 71.8931 114.965C71.4014 114.425 71.1064 113.543 71.1556 112.857C71.2539 112.22 71.8439 111.386 72.4831 111.043C73.2698 110.651 73.9745 110.602 74.5973 110.896ZM109.112 111.337C109.702 111.337 110.44 111.582 110.784 111.926C111.128 112.318 111.374 113.2 111.276 113.984C111.226 114.768 110.833 115.651 110.391 115.896C109.997 116.19 109.063 116.239 108.326 116.092C107.342 115.847 106.9 115.357 106.654 114.425C106.506 113.494 106.654 112.808 107.244 112.22C107.686 111.729 108.571 111.337 109.112 111.337ZM121.207 112.318C121.355 112.318 121.945 112.661 122.584 113.053C123.223 113.494 123.666 114.327 123.666 115.014C123.666 115.798 123.223 116.533 122.436 116.974C121.355 117.66 121.109 117.66 119.978 116.974C119.29 116.582 118.749 115.749 118.7 115.063C118.651 114.278 119.044 113.592 119.781 113.102C120.47 112.661 121.109 112.318 121.207 112.318ZM116.93 120.111C117.471 120.307 118.11 120.797 118.356 121.288C118.552 121.729 118.651 122.562 118.503 123.101C118.405 123.64 117.815 124.327 117.274 124.572C116.733 124.866 115.848 124.964 115.307 124.817C114.766 124.719 114.127 124.131 113.832 123.591C113.586 123.052 113.488 122.17 113.586 121.631C113.734 121.092 114.324 120.503 114.914 120.258C115.455 120.013 116.389 119.964 116.93 120.111ZM79.9073 121.631C80.5956 121.631 81.4314 121.925 81.7756 122.268C82.1198 122.611 82.4148 123.346 82.3656 123.984C82.3656 124.572 82.0214 125.405 81.6281 125.797C81.1856 126.238 80.3989 126.532 79.9073 126.532C79.3664 126.532 78.6289 126.238 78.1864 125.797C77.7931 125.405 77.3998 124.572 77.3506 123.934C77.3014 123.346 77.5964 122.562 77.9406 122.219C78.3339 121.925 79.2189 121.631 79.9073 121.631Z" fill="black"/>
<path d="M64.1748 74.1342L68.0098 74.1832C70.124 74.1832 72.189 74.3302 72.6315 74.5263C73.369 74.8204 73.1723 75.3596 71.5006 78.3005C70.3206 80.3592 69.6323 82.2218 69.7306 82.9571C69.829 83.7413 70.2879 84.2478 71.1073 84.4766C71.7956 84.6726 73.2706 84.8197 74.4015 84.8687C76.0731 84.9177 76.4665 85.0647 76.2698 85.6529C76.1223 86.0451 75.0898 87.6136 73.9098 89.0841C72.189 91.3878 71.7465 91.6819 71.1073 91.1918C70.714 90.8486 70.0748 90.2114 69.7306 89.8193C69.3865 89.4272 68.5015 87.8587 67.7148 86.3882C66.9281 84.9177 65.9448 82.3689 65.5515 80.7513C65.1581 79.1338 64.6665 76.9771 64.4698 75.9477L64.1748 74.1342ZM78.2856 74.6243L90.5281 74.9184L90.3806 77.3692C90.3315 78.6927 89.8398 81.3885 89.299 83.3492C88.7581 85.3098 87.824 87.7116 87.1848 88.741C86.5456 89.7703 85.6115 90.9467 85.0706 91.3878C84.579 91.878 83.3498 92.5642 82.3173 93.0054C81.2848 93.3975 79.4656 93.7896 78.2856 93.7896C77.0565 93.7896 76.0731 93.6426 76.0731 93.5445C76.0731 93.3975 77.5973 91.2408 79.4656 88.741C81.3831 86.2411 82.9073 83.8884 82.9565 83.4962C82.9565 83.0551 82.7106 82.4669 82.3173 82.1728C81.9731 81.8297 80.2031 81.3885 78.384 81.1925C76.5648 80.9474 75.0406 80.7023 75.0406 80.6533C75.0406 80.6043 75.7781 79.1828 76.6631 77.5653L78.2856 74.6243ZM105.081 75.1635L109.851 75.1145C112.506 75.1145 114.816 75.2125 115.062 75.3596C115.259 75.5066 114.325 77.0751 112.948 78.8397C111.621 80.5553 110.49 82.1728 110.49 82.3689C110.49 82.5649 110.736 83.1041 111.08 83.5943C111.424 84.0844 113.243 84.9667 118.455 86.6823L111.965 92.8093L111.08 91.4368C110.588 90.7016 109.408 88.1037 108.425 85.702C107.441 83.2512 106.458 80.5062 106.163 79.5749C105.868 78.5946 105.524 77.2222 105.376 76.4869L105.081 75.1635ZM121.011 75.6537C121.306 75.6537 123.863 76.0948 126.715 76.634C129.566 77.1732 133.5 77.6143 135.466 77.6143C137.433 77.6143 139.006 77.7613 139.006 78.0064C139.056 78.2025 138.564 79.9181 137.974 81.7807C137.384 83.6923 136.253 86.5352 135.466 88.1528C134.631 89.7703 133.156 92.074 132.172 93.2504C131.189 94.4268 129.419 95.9953 128.19 96.7796C126.961 97.5639 125.092 98.3481 124.011 98.4952C122.929 98.6422 121.159 98.6422 120.077 98.4952C118.996 98.2991 117.324 97.6619 114.472 95.9953L119.094 91.829C121.651 89.5252 123.863 87.1724 124.011 86.5842C124.158 85.947 124.06 85.1628 123.814 84.8687C123.617 84.5256 121.995 83.6923 120.274 83.1041C118.553 82.4669 116.98 81.7807 116.783 81.6336C116.586 81.4376 117.324 80.0161 118.455 78.4966C119.586 76.9281 120.716 75.6537 121.011 75.6537Z" fill="#A02C2C"/>
<rect x="50" y="108" width="184" height="184" fill="#33C4C4"/>
<path d="M197.67 131C198.063 131 198.653 131.49 199.047 132.078C199.44 132.716 200.03 135.853 200.374 139.088C200.817 142.911 201.062 150.803 201.062 161.635C201.062 172.419 200.817 180.212 200.423 183.692C200.03 186.633 198.752 195.701 197.572 203.789C196.342 211.877 194.818 221.043 194.179 224.131C193.491 227.219 192.507 231.091 191.967 232.708C191.426 234.326 191.032 235.698 191.131 235.747C191.18 235.796 195.654 237.757 201.062 240.061C206.471 242.365 211.142 244.668 211.486 245.109C211.879 245.698 211.928 246.237 211.633 246.776C211.338 247.266 210.748 247.658 210.306 247.658C209.814 247.658 204.947 245.796 199.489 243.492C193.982 241.188 189.459 239.375 189.361 239.424C189.262 239.522 188.476 240.845 187.64 242.365C186.755 243.933 186.067 245.355 186.067 245.551C186.017 245.796 189.115 248.688 192.901 252.07C197.867 256.481 199.833 258.491 199.833 259.275C199.833 259.912 199.391 260.599 198.85 260.893C198.014 261.285 197.326 260.942 194.572 258.491C192.704 256.922 189.557 254.177 187.542 252.364C185.526 250.599 183.707 249.129 183.51 249.129C183.264 249.129 182.33 250.06 181.396 251.187C180.412 252.364 179.675 253.393 179.675 253.54C179.675 253.687 181.937 256.432 184.641 259.667C187.345 262.902 189.803 265.99 190.098 266.53C190.393 267.069 190.492 267.902 190.295 268.343C190.147 268.833 189.508 269.225 188.918 269.225C188.082 269.225 186.411 267.559 176.725 255.991L173.677 258.099C171.956 259.275 169.252 260.697 167.629 261.334C166.007 261.922 163.007 262.804 160.992 263.245C158.189 263.883 154.944 264.079 147.225 264.03C139.801 264.03 135.867 263.785 132.229 263.147C129.525 262.657 125.641 261.824 123.625 261.285C121.609 260.697 118.512 259.667 116.742 258.981C114.972 258.246 112.317 256.873 110.842 255.893C109.367 254.913 107.597 253.54 105.679 251.58L99.1892 255.011C95.5508 256.922 92.1583 258.393 91.5683 258.295C90.7325 258.246 90.3883 257.854 90.3392 256.824C90.1917 255.599 90.585 255.305 103.467 248.639L102.287 245.796C101.697 244.276 100.812 242.021 99.5333 238.59L95.2067 239.179C92.8467 239.473 89.7 239.865 88.225 240.012C86.2583 240.208 84.7833 240.747 82.8167 242.07C80.8008 243.394 79.9158 243.737 79.375 243.394C78.9817 243.1 78.5883 242.463 78.49 241.972C78.3917 241.433 78.9325 240.453 79.7192 239.669C80.4567 238.933 82.0792 237.904 83.3083 237.414C84.5375 236.875 87.9792 236.238 90.9292 235.894C93.9283 235.6 96.8292 235.208 97.4683 235.012C98.4517 234.718 98.55 234.473 98.255 233.199C98.1075 232.365 97.665 230.062 97.37 228.003C97.075 225.944 96.7308 224.131 96.5833 223.984C96.4358 223.787 91.1258 223.248 84.7833 222.758C78.4408 222.268 72.9342 221.68 72.6392 221.533C72.295 221.337 72 220.65 72 219.964C72 219.229 72.3442 218.592 72.885 218.396C73.3275 218.249 78.6375 218.494 84.6358 219.033C90.6342 219.523 95.6492 219.866 95.7967 219.719C95.9442 219.572 95.7475 209.769 95.305 197.907C94.8133 184.575 94.6167 171.732 94.8133 164.331C94.9608 157.714 95.4525 149.577 95.895 146.195C96.3375 142.813 96.9767 138.499 97.37 136.637C97.7142 134.725 98.3042 133.059 98.6483 132.863C98.9925 132.618 99.6317 132.519 100.025 132.618C100.418 132.667 101.746 134.578 102.926 136.882C104.106 139.186 107.941 146.244 111.432 152.567C114.972 158.89 118.364 164.821 119.003 165.654C119.642 166.537 120.773 167.566 121.56 167.958C122.297 168.35 125.887 169.086 129.525 169.674C133.163 170.213 143.734 171.781 153.027 173.154C164.187 174.771 170.382 175.458 171.415 175.213C172.251 175.016 173.48 174.33 174.119 173.644C174.807 172.958 179.773 163.694 185.182 153.057C190.639 142.421 195.507 133.108 195.998 132.323C196.539 131.588 197.277 131 197.67 131Z" fill="black"/>
<path d="M196.392 140.313C196.638 140.313 196.982 142.225 197.474 148.891L194.475 153.057C192.803 155.361 190.443 159.184 189.263 161.635C188.083 164.086 186.755 167.37 186.313 168.988C185.92 170.605 185.575 172.713 185.575 173.644C185.575 174.575 185.87 176.487 186.264 177.81C186.706 179.232 187.788 181.144 188.87 182.32C189.902 183.496 191.967 185.114 196.195 187.614L193.835 203.299C192.557 211.926 191.131 220.65 190.689 222.66C190.246 224.67 189.361 228.15 187.542 234.424L186.116 233.787C184.936 233.297 184.543 233.297 183.904 233.934C183.461 234.326 183.068 234.963 183.117 235.306C183.117 235.6 183.707 236.336 185.821 237.904L182.871 243.198L180.757 241.237C179.626 240.208 178.594 239.326 178.446 239.326C178.299 239.326 177.856 239.424 177.463 239.571C177.07 239.718 176.725 240.404 176.725 241.139C176.725 242.071 177.315 243.149 180.61 246.433L176.971 250.697L175.742 249.129C174.857 248.001 174.169 247.609 173.284 247.756C172.448 247.854 172.005 248.247 171.907 248.982C171.858 249.619 172.35 250.844 174.316 253.295L171.956 254.913C170.678 255.795 168.465 256.922 167.138 257.413C165.761 257.952 163.352 258.687 161.73 259.128C160.107 259.52 156.567 260.059 153.863 260.305C151.159 260.55 145.849 260.55 142.063 260.354C138.277 260.108 132.869 259.471 130.017 258.932C127.165 258.344 123.527 257.413 121.905 256.873C120.282 256.334 117.283 255.06 115.267 254.03C113.251 252.952 111.088 251.629 109.318 249.864L111.088 248.737C112.317 248.001 112.809 247.315 112.809 246.433C112.809 245.616 112.481 245.126 111.825 244.962C111.285 244.815 109.908 245.159 108.728 245.747C107.056 246.58 106.614 246.629 106.319 246.09C106.122 245.747 105.483 244.031 104.893 242.267C104.303 240.502 103.713 238.786 103.664 238.443C103.516 238.1 104.254 237.708 105.483 237.463C106.614 237.267 107.794 236.728 108.089 236.238C108.482 235.649 108.482 235.159 108.089 234.522C107.794 234.081 107.007 233.689 106.368 233.738C105.729 233.738 104.549 233.885 103.713 233.983C102.336 234.179 102.287 234.13 101.697 231.238C101.402 229.62 100.96 227.317 100.468 223.886L104.155 224.229C107.204 224.572 108.04 224.474 108.63 223.886C109.023 223.493 109.367 222.954 109.367 222.66C109.367 222.366 109.072 221.876 108.728 221.533C108.433 221.19 106.368 220.749 100.271 220.16L99.927 216.141C99.7303 213.935 99.2878 204.72 98.9437 195.701C98.6487 186.682 98.5012 178.938 98.6487 178.546C98.7962 178.105 99.8779 177.663 101.304 177.467C102.631 177.271 104.45 176.585 105.385 175.997C106.319 175.36 107.548 174.232 108.089 173.497C108.875 172.419 109.121 171.487 109.023 169.331C108.974 167.811 108.482 165.311 107.941 163.841C107.4 162.37 105.827 159.625 104.5 157.714C103.123 155.802 101.353 153.498 98.9928 150.852L99.5829 146.44C99.927 143.989 100.32 141.833 100.468 141.637C100.615 141.44 103.811 146.734 107.597 153.4C111.334 160.067 115.07 166.488 115.808 167.664C116.595 168.791 117.971 170.164 118.807 170.703C119.692 171.242 121.216 171.928 122.15 172.174C123.085 172.419 133.705 174.085 145.75 175.85C157.796 177.614 168.613 179.036 169.842 179.036C171.071 179.036 172.989 178.595 174.12 178.056C175.349 177.467 176.873 176.193 177.758 174.967C178.594 173.84 180.413 170.703 181.74 168.007C183.117 165.311 186.854 157.959 190.099 151.685C193.344 145.46 196.146 140.313 196.392 140.313Z" fill="#FF8080"/>
<path d="M197.375 155.998C197.67 155.998 197.867 157.959 197.867 160.557C197.867 163.007 197.621 169.184 197.277 174.281C196.933 179.33 196.539 183.447 196.392 183.447C196.244 183.447 195.015 182.614 193.688 181.585C192.311 180.604 190.836 178.987 190.393 178.055C189.902 177.124 189.508 175.36 189.508 174.134C189.508 172.909 189.951 170.36 190.541 168.497C191.131 166.635 192.163 163.939 192.803 162.615C193.491 161.243 194.72 159.233 195.507 158.057C196.293 156.929 197.129 155.998 197.375 155.998ZM99.386 156.978C99.4843 156.978 100.517 158.449 101.697 160.312C102.877 162.125 104.204 164.625 104.647 165.948C105.089 167.223 105.433 168.889 105.433 169.723C105.433 170.556 104.991 171.634 104.45 172.173C103.909 172.713 102.631 173.35 101.648 173.644C100.615 173.889 99.4843 174.134 99.1893 174.134C98.6976 174.134 98.5501 172.124 98.4518 165.899C98.4026 161.341 98.5501 157.469 98.796 157.322C99.0418 157.126 99.2876 156.978 99.386 156.978Z" fill="#FF0E0E"/>
<path fill-rule="evenodd" clip-rule="evenodd" d="M125.494 187.908C127.018 188.104 129.476 188.888 130.951 189.623C132.475 190.359 134.885 192.172 136.409 193.692C138.179 195.456 139.703 197.613 140.785 199.819C142.309 203.152 142.358 203.299 141.473 204.132C140.85 204.72 140.244 204.884 139.654 204.622C139.162 204.426 138.228 203.152 137.638 201.779C137.048 200.456 135.524 198.25 134.295 196.878C133.065 195.505 130.804 193.79 129.181 192.956C126.723 191.731 125.74 191.486 122.593 191.535C119.692 191.535 118.463 191.78 116.693 192.711C115.513 193.349 113.645 194.476 112.661 195.26C111.186 196.388 110.596 196.535 109.809 196.142C109.269 195.897 108.826 195.162 108.826 194.574C108.826 193.839 109.515 192.956 110.94 191.927C112.071 191.045 114.136 189.868 115.464 189.28C116.84 188.643 119.004 188.055 120.331 187.859C121.659 187.712 123.97 187.712 125.494 187.908ZM171.022 191.437C174.415 191.535 175.398 191.78 178.102 193.25C179.823 194.182 181.937 195.701 182.773 196.633C183.559 197.613 184.838 199.672 185.575 201.289C186.313 202.907 187.05 204.867 187.198 205.603C187.394 206.485 187.247 207.171 186.755 207.661C186.313 208.102 185.723 208.445 185.379 208.445C185.084 208.445 184.592 208.151 184.297 207.808C184.002 207.465 183.412 205.995 182.97 204.475C182.429 202.662 181.445 200.995 179.774 199.181C178.25 197.515 176.627 196.289 175.201 195.75C173.972 195.309 171.71 194.966 170.039 194.966C168.121 195.015 166.253 195.407 164.63 196.093C163.303 196.682 161.434 197.907 160.549 198.74C159.665 199.623 158.583 200.946 158.189 201.681C157.747 202.613 157.108 203.005 156.272 203.005C155.584 203.005 154.944 202.662 154.748 202.171C154.6 201.681 154.551 200.848 154.699 200.309C154.895 199.77 155.928 198.25 157.108 196.976C158.288 195.652 160.107 194.133 161.189 193.545C162.27 193.005 164.04 192.27 165.122 191.927C166.302 191.535 168.662 191.339 171.022 191.437ZM143.292 212.318C143.489 212.318 145.996 212.661 148.75 213.053C151.552 213.445 154.699 214.033 155.78 214.425C157.255 214.965 157.796 215.406 157.944 216.288C158.042 217.023 157.599 218.053 156.862 218.935C156.223 219.768 155.289 221.288 154.846 222.366C154.404 223.444 153.371 225.013 152.585 225.797C151.306 227.121 151.06 227.905 150.421 232.659C149.979 235.649 149.389 239.816 148.602 245.894L150.372 248.1C151.355 249.325 153.519 251.433 155.19 252.805C156.862 254.178 158.337 255.697 158.435 256.236C158.485 256.775 158.239 257.462 157.796 257.805C157.206 258.246 156.764 258.295 155.928 257.854C155.289 257.56 153.47 256.187 151.847 254.815C150.224 253.491 148.209 251.433 145.701 248.1L143.882 249.374C142.85 250.06 141.276 250.844 140.293 251.089C139.359 251.335 138.031 251.531 137.343 251.58C136.704 251.58 135.868 251.237 135.524 250.844C135.18 250.403 135.032 249.619 135.13 249.08C135.278 248.492 135.917 248.001 136.753 247.854C137.49 247.707 138.965 247.364 140.047 247.07C141.129 246.776 142.653 245.845 143.39 245.012C144.177 244.129 145.013 242.708 145.259 241.727C145.505 240.796 145.996 237.12 146.34 233.591C146.881 227.709 146.881 227.072 146.144 226.238C145.652 225.748 144.374 222.905 143.292 219.915C142.21 216.974 141.276 214.376 141.276 214.229C141.227 214.033 141.571 213.543 142.014 213.102C142.456 212.661 143.046 212.318 143.292 212.318ZM126.772 220.65C127.313 220.65 128.05 220.945 128.395 221.288C128.739 221.631 129.034 222.317 129.034 222.856C129.034 223.395 128.739 224.131 128.395 224.474C128.1 224.817 127.362 225.062 126.821 225.111C126.28 225.111 125.543 224.817 125.199 224.474C124.855 224.131 124.51 223.395 124.461 222.856C124.412 222.317 124.707 221.582 125.051 221.239C125.444 220.945 126.231 220.65 126.772 220.65ZM137.736 225.552C138.228 225.552 139.014 225.993 139.555 226.532C140.44 227.415 140.49 227.709 139.949 228.787C139.457 229.718 139.014 229.964 137.785 229.866C136.753 229.767 136.114 229.375 135.868 228.738C135.573 228.15 135.72 227.366 136.163 226.679C136.605 226.042 137.294 225.552 137.736 225.552ZM173.923 227.023C174.513 227.023 175.25 227.317 175.595 227.66C175.939 228.003 176.234 228.689 176.234 229.228C176.234 229.767 175.89 230.503 175.496 230.846C175.054 231.189 174.169 231.336 173.48 231.189C172.661 231.026 172.169 230.535 172.005 229.718C171.907 229.081 172.005 228.199 172.3 227.758C172.645 227.366 173.333 227.023 173.923 227.023ZM160.697 227.611C161.975 227.758 162.221 228.003 162.32 229.375C162.418 230.65 162.172 231.091 161.238 231.581C160.156 232.12 159.861 232.071 158.976 231.189C158.435 230.65 157.944 229.866 157.895 229.473C157.845 229.032 158.14 228.444 158.534 228.101C158.927 227.758 159.91 227.562 160.697 227.611ZM126.084 236.336C126.575 236.336 127.362 236.924 127.755 237.561C128.296 238.492 128.394 239.081 128.001 239.767C127.673 240.42 127.018 240.747 126.035 240.747C125.051 240.747 124.396 240.42 124.068 239.767C123.724 239.081 123.773 238.492 124.363 237.561C124.756 236.924 125.543 236.336 126.084 236.336ZM163.844 239.277C164.286 239.277 164.925 239.571 165.27 239.914C165.614 240.257 165.909 240.943 165.909 241.482C165.909 242.022 165.614 242.757 165.27 243.1C164.975 243.443 164.237 243.688 163.696 243.737C163.155 243.737 162.418 243.443 162.074 243.1C161.73 242.757 161.434 242.12 161.385 241.678C161.385 241.188 161.729 240.502 162.172 240.061C162.614 239.62 163.352 239.277 163.844 239.277Z" fill="black"/>
<rect x="160" y="45" width="184" height="184" fill="#FFD351"/>
<path d="M284.442 59C285.426 59 286.163 59.7352 288.228 63.0193C289.605 65.2741 291.719 69.0973 292.85 71.4991C293.931 73.9009 295.652 78.3123 296.636 81.3023C297.619 84.2923 298.75 88.1156 299.192 89.8801C299.635 91.6447 300.323 94.8308 300.716 96.9875C301.11 99.1442 301.749 103.801 302.142 107.281C302.536 110.761 302.88 116.545 302.88 120.025C302.88 123.505 302.634 128.603 302.388 131.299C302.093 133.995 301.749 137.524 301.306 142.082L306.616 142.474C309.566 142.67 314.286 143.21 317.138 143.602C319.99 144.043 322.596 144.631 322.94 144.925C323.284 145.268 323.579 145.906 323.53 146.347C323.53 146.837 323.087 147.425 322.546 147.719C321.858 148.062 320.088 147.964 316.794 147.474C314.139 147.082 309.419 146.592 300.667 146.102L299.34 152.915C298.602 156.689 297.865 160.169 297.717 160.708C297.422 161.64 297.717 161.689 303.224 162.081C306.42 162.326 310.255 162.718 311.73 163.012C313.205 163.257 314.729 163.747 315.073 164.041C315.417 164.385 315.712 164.973 315.712 165.365C315.712 165.757 315.368 166.394 314.926 166.688C314.385 167.179 313.5 167.228 311.386 166.835C309.812 166.541 305.731 166.149 296.144 165.61L295.505 167.571C295.161 168.649 294.374 170.806 293.735 172.325C293.096 173.894 292.555 175.315 292.555 175.511C292.555 175.756 295.357 177.031 298.799 178.452C302.29 179.874 306.026 181.687 307.206 182.521C308.337 183.305 309.271 184.285 309.271 184.579C309.271 184.922 309.026 185.511 308.681 185.805C308.337 186.148 307.698 186.442 307.206 186.442C306.715 186.442 305.141 185.805 303.765 185.02C302.339 184.187 298.848 182.668 295.996 181.54C293.145 180.462 290.686 179.58 290.49 179.58C290.244 179.58 289.457 180.756 288.671 182.128C287.884 183.55 286.212 186.05 284.934 187.667C283.705 189.285 282.328 190.755 281.935 190.951C281.541 191.196 280.804 191.147 280.263 190.853C279.624 190.51 279.28 189.873 279.28 187.422L276.821 188.648C275.494 189.334 272.544 190.314 270.331 190.853C268.07 191.392 264.235 191.981 257.253 192.569L257.941 193.892C258.335 194.677 258.777 195.265 259.023 195.265C259.22 195.265 260.695 194.824 262.317 194.333C263.94 193.794 267.283 193.059 269.692 192.618C272.151 192.177 274.855 191.834 275.74 191.834C276.576 191.834 278.001 192.177 278.788 192.569C279.771 193.059 280.411 193.843 280.656 194.873C280.902 195.755 281.001 199.578 280.902 203.352C280.804 207.127 280.607 210.901 280.509 211.685C280.411 212.469 279.722 213.744 278.985 214.479C278.051 215.459 277.166 215.852 276.035 215.852C274.953 215.852 271.216 214.332 256.171 207.029L254.451 207.764C253.516 208.156 252.238 208.499 251.648 208.499C251.009 208.499 249.731 208.107 247.076 206.686L242.159 208.303C239.455 209.185 235.915 210.166 234.292 210.509C232.67 210.852 230.556 210.95 229.621 210.803C228.687 210.607 227.163 210.019 226.327 209.479C225.442 208.94 224.41 207.764 224.016 206.882C223.476 205.656 223.377 203.647 223.672 197.52C223.918 191.392 224.115 189.677 224.705 189.383C225.098 189.138 228.933 189.481 233.309 190.118C237.636 190.755 241.864 191.442 242.651 191.638C243.732 191.932 244.027 191.883 243.781 191.441C243.536 191.098 241.913 190.412 240.094 189.824C238.226 189.285 235.423 188.206 233.801 187.422C232.178 186.638 229.523 185.118 224.951 182.079L222.738 183.991C221.509 185.02 219.985 186.442 219.296 187.128C218.608 187.863 217.723 188.402 217.33 188.402C216.936 188.402 216.297 188.157 215.953 187.814C215.609 187.471 215.363 186.834 215.363 186.442C215.363 186.05 216.887 184.236 222.001 179.138L219.493 176.541C218.166 175.119 216.101 172.57 214.97 170.855C212.954 167.865 212.856 167.816 211.086 168.061C210.053 168.208 206.562 169.678 203.317 171.296C200.072 172.864 196.926 174.188 196.336 174.188C195.598 174.188 195.106 173.796 194.91 173.06C194.713 172.374 194.959 171.688 195.549 171.149C196.041 170.708 198.597 169.188 201.252 167.865C203.858 166.492 207.005 165.169 208.234 164.875C209.463 164.581 210.446 164.238 210.446 163.993C210.446 163.796 209.709 161.983 208.824 159.973C207.89 157.964 206.661 154.826 205.972 152.964C205.333 151.15 204.596 149.68 204.301 149.68C204.055 149.68 199.482 150.807 194.221 152.18C188.961 153.601 183.847 154.826 182.913 154.974C181.684 155.121 180.996 154.925 180.455 154.336C179.914 153.699 179.865 153.307 180.258 152.719C180.553 152.229 181.684 151.591 182.716 151.248C183.749 150.905 188.076 149.729 192.255 148.65C196.434 147.572 200.711 146.445 201.744 146.2C203.317 145.808 203.514 145.611 203.317 144.631C203.17 144.043 202.58 141.543 202.039 139.141C201.498 136.74 200.711 132.72 200.318 130.318C199.925 127.917 199.286 122.917 198.892 119.29C198.499 115.663 198.155 108.359 198.155 103.114C198.155 97.8208 198.499 90.8115 198.892 87.4293C199.286 84.0472 199.925 79.7828 200.367 77.8712C200.81 75.9596 201.744 72.4794 202.481 70.0776C203.317 67.3818 204.153 65.5682 204.694 65.2741C205.186 65.029 205.972 64.9309 206.415 65.127C206.857 65.2741 208.824 67.6268 210.741 70.4208C212.659 73.1657 215.658 77.8222 217.428 80.8122C219.198 83.8022 222.64 90.0762 229.671 103.36L238.127 103.262C242.798 103.164 250.566 102.869 255.434 102.575C260.301 102.281 264.825 101.889 265.464 101.693C266.496 101.448 266.791 100.762 267.971 96.0072C268.709 93.0172 269.987 88.7528 270.774 86.449C271.61 84.1453 272.888 80.7632 273.626 78.8515C274.363 76.9399 276.526 72.2344 278.395 68.3131C280.263 64.3918 282.131 60.7156 282.525 60.0784C282.918 59.4411 283.705 59 284.442 59Z" fill="black"/>
<path d="M227.9 193.206L229.621 193.451C230.555 193.598 233.85 194.137 236.898 194.628C241.815 195.412 242.405 195.608 242.405 196.49C242.405 197.029 242.7 198.451 243.093 199.676C243.437 200.902 243.88 202.274 244.076 202.764C244.322 203.45 243.732 203.794 240.536 204.774C238.471 205.411 235.374 206.244 233.653 206.636C230.949 207.176 230.408 207.176 227.9 205.754V199.48V193.206ZM276.821 195.755L276.723 203.548C276.625 207.862 276.428 211.538 276.182 211.783C275.985 211.979 272.249 210.46 267.824 208.303C263.448 206.195 259.76 204.382 259.613 204.284C259.465 204.137 259.662 203.794 260.006 203.45C260.35 203.156 260.596 201.98 260.596 200.902C260.596 198.941 260.596 198.941 263.399 198.01C264.972 197.519 267.824 196.833 269.692 196.49C271.56 196.147 273.97 195.853 276.821 195.755Z" fill="#0000E5"/>
<path d="M284.836 65.3721C285.131 65.3721 286.114 66.8425 286.95 68.7052C287.835 70.5188 289.261 73.6558 290.096 75.6655C290.932 77.6751 292.26 81.3513 293.046 83.7531C293.833 86.1549 294.915 90.1742 295.456 92.576C295.996 94.9778 296.783 98.9971 297.176 101.399C297.619 103.801 298.16 109.34 298.406 113.653C298.701 118.457 298.75 123.848 298.455 127.623C298.209 131.005 297.865 134.975 297.717 136.445C297.57 137.916 297.324 139.877 296.98 142.327H290.342C284.098 142.327 283.705 142.376 283.459 143.308C283.311 143.847 283.41 144.582 283.656 144.925C283.951 145.317 286.261 145.66 290.195 145.906C293.489 146.102 296.291 146.298 296.341 146.396C296.39 146.445 295.898 149.141 295.259 152.376C294.571 155.611 293.882 158.944 293.636 159.728C293.243 161.199 293.194 161.199 289.113 161.444C285.966 161.64 284.934 161.885 284.491 162.571C284.098 163.159 284.098 163.649 284.491 164.287C284.885 164.924 285.819 165.169 288.326 165.267C290.096 165.316 291.571 165.561 291.571 165.855C291.571 166.149 290.883 168.11 288.621 174.188L286.753 173.894C285.475 173.698 284.688 173.845 284.049 174.384C283.41 174.972 283.311 175.413 283.705 176.148C283.951 176.688 284.541 177.227 284.934 177.374C285.327 177.521 285.671 177.766 285.671 178.011C285.671 178.207 284.491 179.285 283.115 180.364C281.689 181.491 279.083 183.207 277.313 184.187C275.543 185.118 272.446 186.442 270.43 187.03C267.185 188.01 265.71 188.157 257.892 188.157C251.255 188.108 248.059 187.912 245.109 187.275C242.946 186.785 239.602 185.756 237.734 184.971C235.816 184.187 232.916 182.668 228.146 179.58L229.916 178.011C230.998 176.982 231.588 176.05 231.49 175.462C231.391 174.972 230.949 174.286 230.506 173.992C229.818 173.551 229.179 173.796 224.951 176.688L223.82 175.56C223.181 174.923 221.46 172.913 219.985 171.002C218.559 169.09 217.33 167.277 217.33 166.982C217.33 166.639 218.166 166.198 219.149 166.051C220.181 165.904 221.558 165.463 222.246 165.12C222.935 164.777 223.771 164.189 224.115 163.845C224.41 163.453 224.606 162.767 224.459 162.326C224.311 161.836 223.82 161.346 223.328 161.199C222.886 161.051 221.165 161.395 219.542 161.934C217.92 162.473 216.199 162.914 215.707 162.914C215.166 162.914 214.331 161.836 213.347 159.875C212.511 158.16 211.135 155.023 210.397 152.866C209.611 150.709 209.07 148.846 209.266 148.699C209.414 148.552 211.921 148.356 214.773 148.258C217.723 148.16 220.329 147.866 220.673 147.523C221.017 147.229 221.312 146.592 221.263 146.151C221.263 145.66 220.771 145.023 220.132 144.68C219.395 144.337 217.281 144.239 207.496 144.778L206.562 140.514C206.021 138.112 205.235 134.338 204.792 132.034C204.399 129.73 203.711 125.221 203.317 121.986C202.924 118.751 202.432 112.477 202.285 108.016C202.088 103.212 202.186 97.1345 202.531 93.0662C202.826 89.2919 203.317 84.8805 203.612 83.2629C203.907 81.6454 204.546 78.4103 205.087 76.0576C205.579 73.6558 206.169 71.7442 206.366 71.7442C206.611 71.6951 208.234 73.9989 210.004 76.7438C211.823 79.5377 214.724 84.3413 216.494 87.4293C218.264 90.5173 221.312 96.1542 226.917 106.791H240.93C248.747 106.742 257.646 106.448 261.088 106.104C264.481 105.761 267.824 105.173 268.561 104.781C269.348 104.389 270.036 103.948 270.135 103.752C270.282 103.507 271.118 100.37 272.101 96.7424C273.036 93.1152 274.56 88.0175 275.494 85.4687C276.477 82.9198 277.706 79.7338 278.296 78.3613C278.886 77.0379 280.46 73.5578 281.836 70.6658C283.213 67.7248 284.541 65.3721 284.836 65.3721Z" fill="#9C9CFF"/>
<path fill-rule="evenodd" clip-rule="evenodd" d="M228.589 118.8C229.572 118.8 231.785 119.192 233.505 119.731C235.275 120.27 237.783 121.545 239.11 122.574C240.438 123.554 242.208 125.172 242.995 126.103C243.978 127.329 244.322 128.162 244.125 128.946C243.978 129.534 243.388 130.171 242.847 130.269C242.159 130.466 241.028 129.73 238.815 127.672C237.095 126.054 234.98 124.437 233.997 124.044C233.063 123.652 231.293 123.162 230.064 122.966C228.835 122.77 226.966 122.819 225.786 123.113C224.508 123.456 222.787 124.486 221.41 125.76C220.181 126.887 218.559 128.848 217.87 130.024C217.182 131.25 216.395 132.426 216.1 132.622C215.805 132.818 215.412 132.965 215.215 132.965C215.019 132.965 214.38 132.524 212.855 131.005L214.085 128.554C214.773 127.23 216.346 125.123 217.526 123.897C218.755 122.721 220.673 121.25 221.853 120.662C222.984 120.074 224.606 119.437 225.393 119.241C226.229 119.045 227.655 118.849 228.589 118.8ZM274.805 118.849C276.33 118.8 278.739 119.094 280.214 119.535C281.738 119.976 283.803 120.809 284.885 121.349C285.966 121.888 288.08 123.456 289.506 124.829C290.981 126.201 292.702 128.162 293.341 129.191C293.98 130.171 294.472 131.348 294.472 131.74C294.472 132.181 293.882 132.769 293.194 133.112C291.965 133.701 291.768 133.603 290.342 131.789C289.506 130.76 288.08 129.093 287.097 128.162C286.163 127.23 284.491 125.907 283.41 125.221C282.328 124.584 280.46 123.701 279.23 123.358C278.05 123.015 275.936 122.672 274.56 122.672C273.232 122.672 271.118 123.015 269.889 123.407C268.61 123.799 266.398 125.27 264.628 126.838C262.907 128.309 261.285 129.534 260.94 129.583C260.596 129.583 260.055 129.289 259.711 128.946C259.367 128.603 259.072 127.868 259.072 127.329C259.072 126.789 260.055 125.417 261.383 124.191C262.71 122.966 265.07 121.398 266.693 120.662C268.315 119.976 270.233 119.241 270.872 119.143C271.56 118.996 273.33 118.849 274.805 118.849ZM252.779 140.514C260.154 140.465 266.595 140.612 267.086 140.857C267.529 141.102 267.922 141.739 267.922 142.278C267.922 142.818 266.988 144.533 265.808 146.102C264.628 147.621 261.629 150.611 259.17 152.719C256.712 154.778 254.647 156.738 254.647 156.983C254.647 157.277 255.188 158.552 255.827 159.826C256.515 161.101 258.335 163.551 259.908 165.267C261.481 166.983 264.038 169.335 265.611 170.414C267.185 171.541 268.561 172.766 268.709 173.159C268.807 173.6 268.561 174.286 268.07 174.776C267.578 175.266 266.939 175.658 266.595 175.658C266.25 175.658 264.136 174.237 261.924 172.57C259.711 170.855 256.81 168.11 252.926 163.355L251.648 166.198C250.763 168.061 249.485 169.776 247.715 171.345C246.24 172.57 244.617 173.649 244.076 173.649C243.535 173.649 242.847 173.404 242.503 173.061C242.159 172.717 241.864 172.178 241.864 171.835C241.864 171.492 243.29 169.825 245.01 168.159C247.715 165.512 248.255 164.728 248.698 162.522C248.993 161.101 249.239 159.336 249.239 158.601C249.288 157.669 248.698 156.689 247.518 155.513C246.535 154.581 244.322 151.64 242.552 149.043C240.831 146.396 239.16 143.7 238.815 143.063C238.324 142.131 238.324 141.69 238.766 141.2C239.209 140.71 242.454 140.563 252.779 140.514ZM271.315 150.121C272.003 150.121 272.888 150.366 273.232 150.709C273.576 151.101 273.822 151.935 273.724 152.572C273.625 153.405 273.134 153.944 272.2 154.287C271.265 154.63 270.577 154.63 269.987 154.238C269.545 153.944 269.102 153.209 269.004 152.523C268.955 151.886 269.151 151.101 269.446 150.758C269.741 150.415 270.577 150.121 271.315 150.121ZM224.164 151.15C224.557 151.15 225.295 151.542 225.786 151.984C226.278 152.474 226.671 153.16 226.671 153.552C226.671 153.993 226.229 154.729 225.639 155.268C224.803 156.101 224.36 156.199 223.279 155.758C222.345 155.415 221.902 154.876 221.804 153.797C221.705 152.817 221.951 152.131 222.541 151.739C223.033 151.395 223.77 151.101 224.164 151.15ZM236.21 151.591C236.652 151.591 237.39 152.033 237.93 152.572C238.471 153.111 238.914 153.748 238.914 153.944C238.914 154.14 238.619 154.778 238.176 155.415C237.783 156.003 236.996 156.493 236.455 156.493C235.915 156.493 235.03 156.052 234.489 155.513C233.948 154.974 233.505 154.336 233.505 154.042C233.505 153.797 233.948 153.111 234.489 152.572C235.03 152.033 235.816 151.591 236.21 151.591ZM284.393 151.64C284.934 151.64 285.77 152.033 286.261 152.474C286.753 152.964 287.146 153.699 287.146 154.189C287.097 154.63 286.605 155.366 286.015 155.807C285.18 156.346 284.59 156.395 283.557 156.052C282.574 155.66 282.18 155.17 282.082 154.14C282.033 153.405 282.328 152.523 282.672 152.18C283.065 151.886 283.852 151.591 284.393 151.64ZM278.001 162.375C278.444 162.375 279.181 162.816 279.722 163.355C280.263 163.895 280.705 164.63 280.705 164.973C280.705 165.316 280.312 165.953 279.87 166.443C279.378 166.934 278.493 167.326 277.903 167.326C277.264 167.326 276.477 166.786 276.035 166.198C275.641 165.561 275.297 164.924 275.297 164.728C275.297 164.532 275.74 163.895 276.28 163.355C276.821 162.816 277.608 162.375 278.001 162.375ZM233.161 166.247C233.702 166.443 234.39 167.032 234.685 167.669C235.128 168.551 235.079 168.943 234.243 169.727C233.702 170.316 232.768 170.757 232.178 170.757C231.539 170.757 230.752 170.218 230.31 169.629C229.867 168.943 229.72 168.159 229.965 167.571C230.162 167.081 230.752 166.492 231.244 166.296C231.735 166.1 232.62 166.1 233.161 166.247Z" fill="black"/>
</svg>
