<?xml version="1.0" encoding="UTF-8"?>
<svg width="256" height="256" data-name="Layer 1" version="1.1" viewBox="0 0 256 256" xmlns="http://www.w3.org/2000/svg"><defs><style type="text/css"><![CDATA[
	.cls-1{fill:#478aff;}
      ]]></style></defs><g stroke-width="1.7143"><path class="cls-1" d="m128.08 69.927a57.429 57.429 0 1 0 57.429 57.429 57.497 57.497 0 0 0-57.429-57.429z"/><circle class="cls-1" cx="210.53" cy="48.859" r="26.16"/><path class="cls-1" d="m242.74 75.156-1.0972-2.4-1.7143 1.9886a39.429 39.429 0 0 1-15.789 10.869l-1.7143 0.61714 0.68572 1.7143a103.01 103.01 0 1 1-50.931-53.503l1.6114 0.77143 0.70285-1.7143a39.429 39.429 0 0 1 11.623-15.24l2.0571-1.7143-2.3486-1.2171a124.59 124.59 0 0 0-57.771-14.04 126.02 126.02 0 1 0 114.67 73.714z"/></g></svg>
