<?xml version="1.0" encoding="UTF-8"?>
<svg width="256" height="256" version="1.1" viewBox="0 0 256 256" xmlns="http://www.w3.org/2000/svg"><defs><style>.cls-1{fill:#5c2d91;}.cls-2,.cls-3{fill:#fff;}.cls-2{opacity:0.1;}.cls-4{fill:#f2f2f2;}</style></defs><title>logo_NETcore</title><g stroke-width="3.9078"><circle class="cls-1" cx="128.7" cy="128.58" r="125.05"/><path class="cls-2" d="m42.024 38.703a125.05 125.05 0 1 0 176.55 176.55z"/><path class="cls-3" d="m32.568 149.1a5.2755 5.2755 0 0 1-3.9078-1.6413 5.3927 5.3927 0 0 1-1.6022-3.9078 5.4709 5.4709 0 0 1 1.6022-3.9078 5.2364 5.2364 0 0 1 3.9078-1.6804 5.3536 5.3536 0 0 1 3.9078 1.6804 5.4318 5.4318 0 0 1 1.6413 3.9078 5.3536 5.3536 0 0 1-1.6413 3.9078 5.3927 5.3927 0 0 1-3.9078 1.6413z"/><path class="cls-3" d="m110.21 148.12h-10.238l-36.616-56.819a23.447 23.447 0 0 1-2.2665-4.4549h-0.31262a73.153 73.153 0 0 1 0.39078 9.7694v51.504h-8.3236v-71.239h10.825l35.639 55.803q2.2274 3.4779 2.8918 4.7675h0.19539a75.342 75.342 0 0 1-0.50801-10.473v-50.098h8.3236z"/><path class="cls-3" d="m166.57 148.12h-37.866v-71.239h36.108v7.542h-27.589v23.681h25.713v7.5029h-25.713v24.697h29.386z"/><path class="cls-3" d="m222.49 84.424h-20.711v63.697h-8.3236v-63.697h-20.477v-7.542h49.511z"/><path class="cls-4" d="m105.72 196.58a19.265 19.265 0 0 1-9.066 1.9148 14.615 14.615 0 0 1-11.215-4.4939 16.647 16.647 0 0 1-4.2204-11.723 17.429 17.429 0 0 1 4.7284-12.739 16.1 16.1 0 0 1 12.036-4.8456 19.265 19.265 0 0 1 7.8155 1.3677v3.9078a15.631 15.631 0 0 0-7.8155-1.9539 11.958 11.958 0 0 0-9.1833 3.9078 14.224 14.224 0 0 0-3.517 10.082 13.56 13.56 0 0 0 3.2825 9.574 11.176 11.176 0 0 0 8.6362 3.5561 16.178 16.178 0 0 0 8.558-2.1884z"/><path class="cls-4" d="m121.7 198.49a10.864 10.864 0 0 1-8.3236-3.4779 12.153 12.153 0 0 1-3.0871-8.7143 12.661 12.661 0 0 1 3.2434-9.2223 11.723 11.723 0 0 1 8.7143-3.3216 10.512 10.512 0 0 1 8.1672 3.2434 12.817 12.817 0 0 1 2.9308 8.9488 12.583 12.583 0 0 1-3.1653 8.9879 11.098 11.098 0 0 1-8.4799 3.5561zm0.27354-21.376a7.1512 7.1512 0 0 0-5.7054 2.4619 10.121 10.121 0 0 0-2.1102 6.7995 9.574 9.574 0 0 0 2.1102 6.5651 7.2294 7.2294 0 0 0 5.7054 2.4228 6.8777 6.8777 0 0 0 5.5881-2.3447 10.238 10.238 0 0 0 1.9539-6.7214 10.395 10.395 0 0 0-1.9539-6.7604 6.8386 6.8386 0 0 0-5.5881-2.4228z"/><path class="cls-4" d="m151.6 178.29a4.6112 4.6112 0 0 0-2.8527-0.74248 4.8066 4.8066 0 0 0-3.9078 2.2665 10.473 10.473 0 0 0-1.6022 6.1743v11.958h-3.9078v-23.447h3.9078v4.8847a8.2063 8.2063 0 0 1 2.4619-3.9078 5.5881 5.5881 0 0 1 3.6733-1.3677 6.1352 6.1352 0 0 1 2.2274 0.31263z"/><path class="cls-4" d="m174.5 187.2h-16.53a8.7534 8.7534 0 0 0 1.993 6.018 7.2685 7.2685 0 0 0 5.549 2.1102 11.723 11.723 0 0 0 7.2684-2.6182v3.517a13.599 13.599 0 0 1-8.1672 2.2274 9.9257 9.9257 0 0 1-7.8155-3.2044 13.091 13.091 0 0 1-2.8527-8.9879 12.817 12.817 0 0 1 3.0871-8.9097 9.9648 9.9648 0 0 1 7.8156-3.4388 8.8316 8.8316 0 0 1 7.1121 2.9699 12.427 12.427 0 0 1 2.501 8.2845zm-3.9078-3.1653a7.8155 7.8155 0 0 0-1.5631-5.041 5.3536 5.3536 0 0 0-4.2986-1.7976 6.057 6.057 0 0 0-4.4939 1.9148 8.6362 8.6362 0 0 0-2.3056 4.9629z"/></g></svg>
