<?xml version="1.0" encoding="UTF-8"?>
<svg width="256" height="256" version="1.1" viewBox="0 0 256 256" xmlns="http://www.w3.org/2000/svg" xmlns:xlink="http://www.w3.org/1999/xlink"><path d="m106.17 234.4a17.941 16.815 0 0 1-8.9703-2.4021l-28.406-15.814c-4.2716-2.2019-2.1358-3.0026-0.85432-3.4029a56.171 52.646 0 0 0 12.815-5.6048 2.1358 2.0017 0 0 1 2.1358 0.20017l21.785 12.01a2.7765 2.6023 0 0 0 2.7765 0l85.432-46.04a2.7765 2.6023 0 0 0 1.0679-2.0017v-92.48a2.7765 2.6023 0 0 0-1.2815-2.0017l-85.432-46.04a2.5629 2.4021 0 0 0-2.3494 0l-85.432 46.04a2.7765 2.6023 0 0 0-1.2815 2.0017v92.28a2.5629 2.4021 0 0 0 1.2815 2.2019l23.494 12.611c12.815 6.0052 20.504-1.0009 20.504-8.0069v-91.079a2.3494 2.2019 0 0 1 2.3494-2.4021h10.679a2.3494 2.2019 0 0 1 2.5629 2.4021v91.079c0 16.014-9.1839 25.022-25.202 25.022-4.9123 0-8.7567 0-19.649-5.0043l-22.426-12.01a18.154 17.015 0 0 1-8.9703-14.613v-92.28a17.941 16.815 0 0 1 8.9703-14.613l85.432-46.24a18.795 17.615 0 0 1 17.727 0l85.432 46.04a17.941 16.815 0 0 1 8.9703 14.813v92.08a18.154 17.015 0 0 1-8.7567 14.613l-85.432 46.24a17.941 16.815 0 0 1-8.9703 2.2019z" fill="#679e63" stroke-width="2.0677"/><path d="m132.44 170.75c-37.376 0-45.279-16.014-45.279-29.626a2.3494 2.2019 0 0 1 2.5629-2.2019h11.106a2.3494 2.2019 0 0 1 2.3494 2.0017c1.7086 10.409 6.6209 15.814 29.26 15.814 17.941 0 25.629-4.0035 25.629-12.811 0-5.2045-2.1358-9.0078-30.115-11.61-23.494-2.0017-37.803-7.0061-37.803-24.421 0-16.014 14.523-25.822 38.871-25.822 27.338 0 40.794 9.0078 42.716 28.024a2.3494 2.2019 0 0 1-0.85431 2.0017 2.5629 2.4021 0 0 1-1.7086 0.60052h-11.106a2.3494 2.2019 0 0 1-2.3494-2.0017c-2.7765-11.01-9.1839-14.412-26.697-14.412-19.649 0-21.999 6.4055-21.999 11.21 0 5.805 2.7765 7.4064 29.26 10.809 26.484 3.403 38.658 7.8068 38.658 25.022 0 17.215-15.378 27.424-42.716 27.424zm123.02-96.884a16.446 15.413 0 1 1-16.446-15.413 16.446 15.413 0 0 1 16.446 15.413zm-30.328 0a13.883 13.011 0 1 0 13.883-12.811 13.883 13.011 0 0 0-13.883 12.811zm7.6888-8.6074h6.4074c2.1358 0 6.4074 0 6.4074 4.604a4.2716 4.0035 0 0 1-3.4173 4.2036c2.3494 0 2.563 1.8016 2.9901 4.0035a18.154 17.015 0 0 0 0.85431 4.604h-3.8444l-0.64074-5.4047c-0.21357-1.0009-0.64073-1.6014-2.1358-1.6014h-2.9901v7.0061h-3.6308zm3.4173 7.6066h2.9901a2.5629 2.4021 0 0 0 2.7765-2.4021c0-2.4021-1.7086-2.4021-2.7765-2.4021h-2.9901z" fill="#679e63" stroke-width="2.0677"/></svg>
