<?xml version="1.0" encoding="UTF-8"?>
<svg width="256" height="256" version="1.1" viewBox="0 0 256 256" xmlns="http://www.w3.org/2000/svg"><path d="m128.07 54.885c68.29 0 120.8 33.472 120.8 70.235 0 36.763-52.552 70.235-120.8 70.235-68.29 0-120.8-33.472-120.8-70.235 0-36.763 52.552-70.235 120.8-70.235m0-7.7884c-70.402 0-127.5 34.909-127.5 78.023 0 43.114 57.094 78.023 127.5 78.023 70.402 0 127.5-34.909 127.5-78.023 0-43.114-57.094-78.023-127.5-78.023zm-40.56 71.765c-3.1476 18.776-14.264 16.829-27.93 16.829l5.4584-32.73c15.14 0 25.42-1.9007 22.471 15.901zm-48.13 49.976h14.622l3.4663-20.769c16.375 0 26.535 1.3908 35.938-8.8547 10.399-11.126 13.108-30.922 5.6975-40.843-3.8647-5.1923-10.08-7.7421-18.527-7.7421h-28.169zm73.988-99.024h14.543l-3.4663 20.769c12.55 0 24.184-1.0663 29.802 4.9605 5.8967 6.3049 3.0679 14.371-3.3069 52.433h-14.742c6.1358-36.81 7.2912-39.869 5.06-42.651-2.1515-2.6889-7.0521-2.1326-18.885-2.1326l-7.4904 44.783h-14.543zm88.411 49.049c-3.1874 19.054-14.622 16.829-27.93 16.829l5.4584-32.73c15.22 0 25.42-1.9007 22.471 15.901zm-48.13 49.976h14.662l3.4663-20.769c17.212 0 26.734 1.159 35.938-8.8547 10.399-11.126 13.108-30.922 5.6975-40.843-3.8647-5.1923-10.08-7.7421-18.527-7.7421h-28.169z" fill="#2ad4ff" stroke-width=".42978"/><g fill="#fff" stroke-width=".12376"><path d="m119.78 195.14c-29.289-1.3032-55.653-8.3713-76.502-20.51-19.687-11.462-32.242-26.471-35.233-42.12-0.52066-2.7241-0.68282-4.5044-0.67912-7.4558 0.00708-5.6568 1.0311-10.474 3.4198-16.087 2.5063-5.8892 5.8342-10.912 10.899-16.449 9.1878-10.045 23.073-19.043 39.296-25.464 20.168-7.9825 43.006-12.091 67.176-12.085 25.2 0.0063 49.088 4.5192 69.662 13.16 19.836 8.3314 35.111 20.031 43.674 33.451 2.169 3.3993 4.2539 7.8064 5.4207 11.459 0.63448 1.986 1.3202 5.0831 1.596 7.209 0.26618 2.0512 0.35434 5.9502 0.17992 7.9569-0.17148 1.9728-0.59223 4.5383-1.0471 6.3848-1.2919 5.244-3.9336 10.945-7.3971 15.963-12.565 18.204-37.877 32.902-68.834 39.968-10.37 2.367-19.805 3.6772-32.354 4.4931-2.8365 0.18442-16.026 0.27079-19.275 0.12624zm-65.181-29.535c0.29723-1.7805 1.0724-6.4213 1.7226-10.313l1.1821-7.0754 8.3063-0.0795c6.5854-0.063 8.6866-0.12584 10.142-0.30326 7.9777-0.97251 12.967-3.5012 17.941-9.0929 4.7538-5.3443 7.9447-12.496 9.0848-20.361 0.30306-2.0907 0.42268-6.2784 0.23607-8.2642-0.50312-5.3537-2.1002-9.5284-4.8843-12.767-3.2549-3.7866-7.8702-5.9525-14.059-6.5979-0.82525-0.0861-7.0425-0.13777-16.6-0.13805-14.453-4e-4 -15.284 0.0122-15.341 0.23316-0.03315 0.1285-2.9537 17.625-6.4902 38.882-3.5365 21.256-6.4509 38.753-6.4765 38.882-0.04393 0.22064 0.36326 0.23363 7.3245 0.23363h7.3711zm113.81 2.937c0.0347-0.1652 0.7633-4.5056 1.6191-9.6453 0.8558-5.1397 1.6111-9.6603 1.6784-10.046l0.12245-0.70087 6.7897-3e-3c6.9299-3e-3 9.6572-0.1045 12.556-0.46908 7.3896-0.92936 12.487-3.6622 17.337-9.2938 3.8968-4.5254 6.6949-10.199 8.0991-16.421 1.9227-8.52 1.1458-16.506-2.1532-22.135-0.87534-1.4934-2.9021-3.7942-4.2717-4.8493-2.5772-1.9854-5.5797-3.2288-9.6325-3.9891-1.6036-0.30082-1.6332-0.30139-17.746-0.34486l-16.14-0.0435-0.12287 0.70567c-0.0676 0.38811-2.9908 17.887-6.4961 38.886s-6.4004 38.286-6.4336 38.414c-0.057 0.22081 0.34536 0.23363 7.3352 0.23363h7.3955l0.0631-0.30037zm-49.732-42.902 3.7311-22.31 4.8822-0.0919c6.7761-0.12757 10.394 0.10975 12.053 0.79054 1.1857 0.48677 2.1033 1.4026 2.5416 2.5366 0.6262 1.6203 0.3444 5.2749-1.05 13.617-0.64804 3.8769-4.5922 27.228-4.6508 27.534l-0.0574 0.30037h14.867l0.55079-3.2374c0.30294-1.7806 1.3228-7.6829 2.2663-13.116 3.1398-18.081 3.6571-21.824 3.6593-26.479 2e-3 -3.0436-0.22997-4.4572-1.0524-6.4289-0.5325-1.2765-0.69346-1.5269-1.8021-2.8035-1.3656-1.5724-2.3747-2.3379-4.2138-3.1963-2.0697-0.96604-4.6678-1.598-8.3046-2.0199-0.78261-0.0908-4.622-0.17942-9.4367-0.21783-4.4645-0.0356-8.1173-0.0919-8.1173-0.12518 0-0.0819 3.3086-19.927 3.3854-20.306l0.0609-0.30037h-7.345c-4.0398 0-7.345 0.0219-7.345 0.0488 0 0.0268-2.9171 17.55-6.4824 38.94-3.5653 21.39-6.4824 38.971-6.4824 39.067 0 0.1444 1.3172 0.16997 7.3058 0.1418l7.3058-0.0344z"/><path d="m61.872 135.63c-1.9502-0.0357-2.1509-0.061-2.148-0.27013 2e-3 -0.12687 1.207-7.4396 2.6783-16.251l2.6751-16.02 5.5537-0.0392c3.2546-0.0229 6.1949 0.0201 7.1026 0.10412 5.6734 0.5249 8.4678 2.2581 9.6337 5.9754 0.471 1.5017 0.622 2.9381 0.54278 5.1633-0.14511 4.0757-1.1086 8.6345-2.5134 11.892-2.3722 5.5003-6.0807 8.2426-12.367 9.145-1.2577 0.18055-5.8542 0.40143-7.6297 0.36665-0.75723-0.0148-2.3448-0.0447-3.528-0.0664z"/><path d="m175.77 135.63-1.8416-0.0401 5.421-32.501 6.5314 5e-3c5.6059 4e-3 6.7215 0.0376 7.8733 0.23726 4.1884 0.7261 6.4429 2.1988 7.5946 4.9609 0.54474 1.3064 0.7608 2.4113 0.83815 4.2861 0.20484 4.9649-1.3753 11.998-3.5221 15.676-1.9321 3.3106-4.5305 5.3676-8.1085 6.419-3.1788 0.93414-6.3629 1.1402-14.786 0.95675z"/></g></svg>
