<?xml version="1.0" encoding="UTF-8"?>
<svg width="256" height="256" version="1.1" viewBox="0 0 256 256" xmlns="http://www.w3.org/2000/svg"><linearGradient id="dot-net-original-a" x1="61.631" x2="62.022" y1="563.35" y2="563.35" gradientTransform="matrix(0 149.74 149.74 0 -84296 -9188)" gradientUnits="userSpaceOnUse"><stop stop-color="#0994DC" offset="0"/><stop stop-color="#66CEF5" offset=".35"/><stop stop-color="#127BCA" offset=".846"/><stop stop-color="#127BCA" offset="1"/></linearGradient><linearGradient id="dot-net-original-b" x1="61.705" x2="62.095" y1="563.34" y2="563.34" gradientTransform="matrix(0 153.55 153.55 0 -86443 -9436)" gradientUnits="userSpaceOnUse"><stop stop-color="#0E76BC" offset="0"/><stop stop-color="#36AEE8" offset=".36"/><stop stop-color="#00ADEF" offset=".846"/><stop stop-color="#00ADEF" offset="1"/></linearGradient><linearGradient id="dot-net-original-c" x1="67.486" x2="67.876" y1="564.98" y2="564.98" gradientTransform="matrix(0 -122.18 -122.18 0 69099 8331)" gradientUnits="userSpaceOnUse"><stop stop-color="#1C63B7" offset="0"/><stop stop-color="#33BDF2" offset=".5"/><stop stop-color="#33BDF2" stop-opacity=".42" offset="1"/></linearGradient><linearGradient id="dot-net-original-d" x1="61.852" x2="62.243" y1="563.28" y2="563.28" gradientTransform="matrix(0 159.42 159.42 0 -89734 -9828.1)" gradientUnits="userSpaceOnUse"><stop stop-color="#166AB8" offset="0"/><stop stop-color="#36AEE8" offset=".4"/><stop stop-color="#0798DD" offset=".846"/><stop stop-color="#0798DD" offset="1"/></linearGradient><linearGradient id="dot-net-original-e" x1="61.975" x2="62.366" y1="563.37" y2="563.37" gradientTransform="matrix(0 169.53 169.53 0 -95444 -10473)" gradientUnits="userSpaceOnUse"><stop stop-color="#124379" offset="0"/><stop stop-color="#1487CB" offset=".39"/><stop stop-color="#165197" offset=".78"/><stop stop-color="#165197" offset="1"/></linearGradient><linearGradient id="dot-net-original-f" x1="1006.5" x2="1008.8" y1="-1412.1" y2="-1412.1" gradientTransform="matrix(4.038 0 0 -4.038 -4028.6 -5649.3)" gradientUnits="userSpaceOnUse"><stop stop-color="#33BDF2" stop-opacity=".698" offset="0"/><stop stop-color="#1DACD8" offset="1"/></linearGradient><linearGradient id="dot-net-original-g" x1="67.564" x2="67.954" y1="565.48" y2="565.48" gradientTransform="matrix(0 -119.02 -119.02 0 67409 8125.8)" gradientUnits="userSpaceOnUse"><stop stop-color="#136AB4" offset="0"/><stop stop-color="#59CAF5" stop-opacity=".549" offset=".6"/><stop stop-color="#59CAF5" stop-opacity=".235" offset="1"/></linearGradient><linearGradient id="dot-net-original-h" x1="998.23" x2="1006.8" y1="-1414.8" y2="-1414.8" gradientTransform="matrix(4.038 0 0 -4.038 -4028.6 -5649.3)" gradientUnits="userSpaceOnUse"><stop stop-color="#05A1E6" stop-opacity=".247" offset="0"/><stop stop-color="#05A1E6" offset="1"/></linearGradient><linearGradient id="dot-net-original-i" x1="67.491" x2="67.881" y1="564.36" y2="564.36" gradientTransform="matrix(0 -121.86 -121.86 0 68798 8310.5)" gradientUnits="userSpaceOnUse"><stop stop-color="#318ED5" offset="0"/><stop stop-color="#38A7E4" offset="1"/></linearGradient><linearGradient id="dot-net-original-j" x1="67.593" x2="67.984" y1="564.41" y2="564.41" gradientTransform="matrix(0 -118.46 -118.46 0 66885 8093)" gradientUnits="userSpaceOnUse"><stop stop-color="#05A1E6" offset="0"/><stop stop-color="#05A1E6" stop-opacity=".549" offset="1"/></linearGradient><linearGradient id="dot-net-original-k" x1="68.291" x2="68.682" y1="564.53" y2="564.53" gradientTransform="matrix(0 -100.1 -100.1 0 56537 6924.3)" gradientUnits="userSpaceOnUse"><stop stop-color="#1959A6" offset="0"/><stop stop-color="#05A1E6" offset=".5"/><stop stop-color="#7EC5EA" offset=".918"/><stop stop-color="#7EC5EA" offset="1"/></linearGradient><linearGradient id="dot-net-original-l" x1="67.892" x2="68.282" y1="563.82" y2="563.82" gradientTransform="matrix(-19.138 -108.54 -108.54 19.138 62523 -3335.8)" gradientUnits="userSpaceOnUse"><stop stop-color="#165096" offset="0"/><stop stop-color="#0D82CA" offset="1"/></linearGradient><linearGradient id="dot-net-original-m" x1="70.847" x2="71.237" y1="566.88" y2="566.88" gradientTransform="matrix(0 -56.721 -56.721 0 32252 4080.3)" gradientUnits="userSpaceOnUse"><stop stop-color="#05A1E6" offset="0"/><stop stop-color="#0495D6" offset=".874"/><stop stop-color="#0495D6" offset="1"/></linearGradient><linearGradient id="dot-net-original-n" x1="61.634" x2="62.024" y1="562.21" y2="562.21" gradientTransform="matrix(-23.063 130.8 130.8 23.063 -72005 -20990)" gradientUnits="userSpaceOnUse"><stop stop-color="#38A7E4" stop-opacity=".329" offset="0"/><stop stop-color="#0E88D3" offset=".962"/><stop stop-color="#0E88D3" offset="1"/></linearGradient><linearGradient id="dot-net-original-o" x1="61.149" x2="61.539" y1="562.65" y2="562.65" gradientTransform="matrix(0 123.74 123.74 0 -69524 -7527.2)" gradientUnits="userSpaceOnUse"><stop stop-color="#168CD4" offset="0"/><stop stop-color="#1C87CC" offset=".5"/><stop stop-color="#154B8D" offset="1"/></linearGradient><linearGradient id="dot-net-original-r" x1="61.049" x2="61.439" y1="562.71" y2="562.71" gradientTransform="matrix(0 121.03 121.03 0 -68012 -7346.7)" gradientUnits="userSpaceOnUse"><stop stop-color="#1DA7E7" offset="0"/><stop stop-color="#37ABE7" stop-opacity="0" offset="1"/></linearGradient><g transform="matrix(2.0783 0 0 2.4511 -4.5241 -26.531)"><path d="m45.288 49.559c4.417 13.507 6.09 37.601 19.006 37.601 0.982 0 1.977-0.096 2.974-0.286-11.74-2.737-13.132-26.569-20.297-38.912a61.601 61.601 0 0 0-1.683 1.597" fill="url(#dot-net-original-a)"/><path d="m46.971 47.962c7.165 12.342 8.557 36.174 20.297 38.912a18.621 18.621 0 0 0 2.773-0.749c-10.539-5.164-13.451-28.306-21.588-39.447-0.492 0.41-0.987 0.839-1.482 1.284" fill="url(#dot-net-original-b)"/><path d="m57.294 40.623c-0.98 0-1.977 0.096-2.977 0.286-2.612 0.493-5.268 1.618-7.944 3.321 0.73 0.722 1.427 1.547 2.081 2.448 2.723-2.259 5.427-3.928 8.12-4.932a18.177 18.177 0 0 1 3.029-0.842 9.393 9.393 0 0 0-2.309-0.281" fill="#14559a"/><path d="m78.268 81.366a47.16 47.16 0 0 0 3.24-2.84c-4.488-13.443-6.095-37.883-19.101-37.883-0.93 0-1.868 0.087-2.804 0.26 11.847 2.947 13.365 28.722 18.665 40.463" fill="url(#dot-net-original-c)"/><path d="m59.604 40.904a9.355 9.355 0 0 0-2.311-0.282l5.114 0.019c-0.929 0-1.867 0.086-2.803 0.263" fill="#3092c4"/><path d="m78.04 84.221a19.441 19.441 0 0 1-1.466-1.584c-2.188 1.549-4.368 2.724-6.533 3.489 0.771 0.376 1.578 0.656 2.436 0.829 0.664 0.136 1.353 0.206 2.075 0.206 2.431 0 4.353-0.288 5.987-1.072-0.9-0.488-1.726-1.118-2.499-1.868" fill="#1969bc"/><path d="m56.573 41.748c10.611 5.55 11.534 30.684 20.001 40.889 0.568-0.4 1.13-0.824 1.691-1.271-5.3-11.741-6.815-37.519-18.66-40.463-1.011 0.189-2.02 0.469-3.032 0.845" fill="url(#dot-net-original-d)"/><path d="m48.453 46.678c8.137 11.141 11.049 34.284 21.588 39.448 2.166-0.765 4.346-1.939 6.533-3.489-8.467-10.205-9.39-35.338-20.001-40.889-2.693 1.002-5.397 2.671-8.12 4.93" fill="url(#dot-net-original-e)"/><path d="m40.083 49.234c-1.275 2.883-2.578 6.674-4.152 11.621 3.131-4.413 6.253-8.214 9.357-11.295a33.873 33.873 0 0 0-1.382-3.606 46.113 46.113 0 0 0-3.823 3.28" fill="url(#dot-net-original-f)"/><path d="m45.037 45.121c-0.374 0.268-0.751 0.542-1.13 0.832 0.495 1.08 0.953 2.292 1.38 3.607a66.502 66.502 0 0 1 1.684-1.597 22.346 22.346 0 0 0-1.934-2.842" fill="#2b74b1"/><path d="m46.373 44.229c-0.445 0.282-0.888 0.58-1.337 0.891 0.695 0.855 1.333 1.81 1.936 2.844 0.495-0.448 0.989-0.879 1.482-1.287-0.654-0.9-1.35-1.726-2.081-2.448" fill="#125a9e"/><path d="m118.75 39.594c-6.001 23.144-18.536 41.734-29.044 46.42h-0.021l-0.567 0.243-0.069 0.027-0.161 0.062-0.072 0.03-0.263 0.093-0.108 0.038-0.131 0.043-0.126 0.044-0.112 0.038-0.224 0.068-0.096 0.025-0.151 0.041-0.103 0.028-0.165 0.043-0.201 0.044c0.475 0.175 0.97 0.264 1.503 0.264 9.965 0 20.013-17.858 36.638-47.556h-6.528z" fill="url(#dot-net-original-g)"/><path d="m33.766 41.563 0.019-0.016 0.023-0.015h0.013l0.161-0.062 0.032-0.016 0.042-0.017 0.173-0.062h9e-3l0.383-0.134 0.057-0.015 0.164-0.049 0.075-0.024 0.165-0.049 0.063-0.017 0.548-0.142 0.075-0.017 0.16-0.031 0.078-0.024 0.161-0.03h0.038l0.333-0.062h0.066l0.154-0.027 0.087-0.015 0.147-0.022 0.081-0.016 0.358-0.032a11.467 11.467 0 0 0-1.061-0.054c-11.223 0-26.685 20.822-33.649 47.788h1.343a390.31 390.31 0 0 0 6.062-11.266c4.879-19.1 14.814-32.126 23.64-35.577" fill="url(#dot-net-original-h)"/><path d="m40.083 49.234a46.488 46.488 0 0 1 3.823-3.281 17.961 17.961 0 0 0-0.911-1.761c-1.026 1.246-1.964 2.89-2.912 5.042" fill="#0d82ca"/><path d="m41.005 41.72c0.733 0.614 1.39 1.46 1.99 2.473 0.189-0.232 0.381-0.447 0.58-0.649a11.263 11.263 0 0 0-2.712-1.897l0.12 0.057 0.022 0.016" fill="#0d82ca"/><path d="m10.127 77.138c10.233-19.719 15.081-32.199 23.64-35.577-8.825 3.454-18.762 16.479-23.64 35.577" fill="url(#dot-net-original-i)"/><path d="m43.574 43.544c-0.199 0.204-0.389 0.417-0.58 0.649 0.322 0.538 0.621 1.124 0.913 1.76 0.378-0.29 0.756-0.563 1.129-0.832a15.351 15.351 0 0 0-1.462-1.577" fill="#127bca"/><path d="m14.773 88.315-0.186 0.022h-0.035l-0.158 0.016h-0.026l-0.376 0.025h-0.039c10.356-0.29 15.091-5.475 17.44-12.997 1.785-5.701 3.252-10.505 4.537-14.535-4.338 6.106-8.696 13.384-13.077 21.539-2.112 3.93-5.325 5.572-8.08 5.922" fill="url(#dot-net-original-j)"/><path d="m14.773 88.311c2.755-0.351 5.968-1.991 8.08-5.923 4.381-8.151 8.741-15.431 13.075-21.538 1.577-4.949 2.878-8.737 4.154-11.621-8.639 8.223-17.311 21.896-25.31 39.077" fill="url(#dot-net-original-k)"/><path d="m10.127 77.139a388 388 0 0 1-6.063 11.266h3.904a95.502 95.502 0 0 1 2.158-11.264" fill="#05a1e6"/><path d="m37.073 40.709-0.083 0.016-0.146 0.021-0.086 0.015-0.154 0.027-0.066 0.016-0.333 0.058h-0.038l-0.162 0.032-0.081 0.022-0.157 0.031-0.074 0.018-0.549 0.142-0.063 0.018-0.166 0.049-0.075 0.021-0.163 0.049-0.06 0.016-0.381 0.134-0.173 0.06-0.072 0.03-0.161 0.06-0.054 0.026c-8.558 3.377-13.406 15.857-23.639 35.576a94.655 94.655 0 0 0-2.158 11.264h0.547l3.755-0.016h1.723l0.375-0.025h0.024l0.158-0.016h0.037l0.186-0.022c8-17.182 16.672-30.854 25.31-39.077 0.95-2.152 1.887-3.796 2.911-5.04-0.6-1.013-1.256-1.861-1.988-2.476l-0.021-0.016-0.122-0.059-0.121-0.061-0.117-0.057-0.139-0.058-0.108-0.047-0.227-0.095-0.097-0.036-0.169-0.068-0.091-0.03-0.235-0.081h-0.019l-0.272-0.077-0.061-0.019-0.229-0.064-0.053-0.015a7.851 7.851 0 0 0-0.569-0.125l-0.059-0.016-0.247-0.04-0.049-0.015-0.292-0.039h-0.051l-0.226-0.025-0.358 0.033" fill="url(#dot-net-original-l)"/><path d="m95.311 52.407c-1.97 6.307-3.563 11.51-4.952 15.791 5.403-7.435 10.725-16.787 15.792-27.579-5.913 1.857-9.065 6.107-10.84 11.788" fill="url(#dot-net-original-m)"/><path d="m90.53 85.621c-0.275 0.14-0.552 0.273-0.823 0.394 10.508-4.687 23.044-23.277 29.044-46.421h-1.216c-13.788 24.631-18.222 41.12-27.005 46.027" fill="url(#dot-net-original-n)"/><path d="m83.668 83.552c2.287-2.791 4.148-7.535 6.691-15.354-2.933 4.029-5.885 7.492-8.84 10.316l-0.015 0.025c0.645 1.931 1.352 3.636 2.158 5.012" fill="#079ae1"/><path d="m83.668 83.552c-0.778 0.95-1.603 1.673-2.519 2.209-0.2 0.117-0.404 0.227-0.61 0.327a8.839 8.839 0 0 0 3.206 1.011l0.524 0.046h0.031l0.252 0.016h0.855l0.097-0.016 0.189-0.016h0.092l0.205-0.022h0.017l0.063-0.015 0.219-0.034h0.064l0.246-0.041h0.04l0.491-0.104c-1.357-0.496-2.492-1.667-3.469-3.334" fill="#1969bc"/><path d="m64.295 87.161c0.982 0 1.976-0.096 2.973-0.288a18.309 18.309 0 0 0 2.773-0.747c0.771 0.376 1.579 0.656 2.435 0.831 0.664 0.135 1.354 0.205 2.077 0.205h-10.258zm10.258 0c2.429 0 4.353-0.288 5.986-1.073a8.84 8.84 0 0 0 3.206 1.012l0.524 0.045h0.031l0.252 0.016h0.302z" fill="#1e5cb3"/><path d="m84.854 87.161h0.561l0.097-0.016 0.191-0.016h0.092l0.204-0.022h0.017l0.062-0.016 0.219-0.033 0.067-0.015 0.247-0.04h0.039l0.491-0.104c0.475 0.175 0.97 0.264 1.503 0.264l-3.788 0.016z" fill="#1d60b5"/><path d="m81.511 78.54v-0.016a47.16 47.16 0 0 1-3.24 2.84 36.81 36.81 0 0 1-1.693 1.271c0.476 0.568 0.959 1.1 1.468 1.585 0.772 0.749 1.597 1.38 2.498 1.867 0.205-0.101 0.41-0.211 0.609-0.327 0.918-0.536 1.741-1.26 2.52-2.209-0.806-1.376-1.513-3.082-2.157-5.012" fill="#175fab"/><path d="m113.68 39.594h-6.121l-0.97 0.047-0.451 0.966c-5.068 10.793-10.388 20.145-15.791 27.58-2.54 7.818-4.404 12.563-6.69 15.353 0.977 1.668 2.114 2.84 3.466 3.337l0.106-0.023h0.022l0.075-0.016 0.17-0.042 0.101-0.029 0.151-0.039 0.094-0.027 0.226-0.068 0.112-0.038 0.126-0.046 0.13-0.041 0.106-0.04 0.264-0.093 0.073-0.027 0.162-0.063 0.068-0.025 0.568-0.243h0.02c0.271-0.119 0.547-0.254 0.821-0.394 8.785-4.908 13.22-21.396 27.008-46.026h-3.851z" fill="url(#dot-net-original-o)"/><path d="m37.433 40.677 0.063 0.016 0.16 0.017h0.054l0.292 0.038 0.049 0.016 0.246 0.041 0.062 0.015 0.567 0.126 0.052 0.016 0.228 0.064 0.063 0.019 0.271 0.077 0.021 0.016 0.237 0.081 0.09 0.029 0.17 0.069 0.096 0.034 0.226 0.094 0.11 0.047 0.136 0.059 0.12 0.057 0.119 0.062c0.979 0.48 1.879 1.121 2.713 1.898 0.308-0.323 0.628-0.613 0.962-0.874-1.823-1.293-3.89-2.03-6.271-2.03-0.276 0-0.552 0.016-0.832 0.037" fill="#7dcbec"/><path d="m43.574 43.544c0.511 0.475 1 1.005 1.462 1.577 0.448-0.311 0.892-0.611 1.337-0.891a14.13 14.13 0 0 0-1.839-1.56c-0.333 0.26-0.652 0.552-0.96 0.874" fill="#5ec5ed"/><g transform="matrix(5.048 0 0 -5.048 -9064.3 2270.6)"><linearGradient id="dot-net-original-p" x1="1807" x2="1807.4" y1="336.16" y2="336.16" gradientTransform="matrix(28.503 -11.822 -11.822 -28.503 -45726 31386)" gradientUnits="userSpaceOnUse"><stop stop-color="#97D6EE" offset="0"/><stop stop-color="#55C1EA" offset=".703"/><stop stop-color="#55C1EA" offset="1"/></linearGradient><path d="m1803 441.73 0.165 7e-3c0.472 0 0.881-0.146 1.242-0.402 0.381 0.301 0.842 0.406 1.482 0.406h-3.099l0.21-0.011" fill="url(#dot-net-original-p)"/><linearGradient id="dot-net-original-q" x1="1808.8" x2="1809.2" y1="335.17" y2="335.17" gradientTransform="matrix(22.512 10.205 10.205 -22.512 -42336 -10473)" gradientUnits="userSpaceOnUse"><stop stop-color="#7ACCEC" offset="0"/><stop stop-color="#3FB7ED" offset="1"/></linearGradient><path d="m1805.9 441.74c-0.64 0-1.1-0.105-1.482-0.406 0.126-0.089 0.248-0.193 0.364-0.309 0.531 0.337 1.056 0.561 1.574 0.658 0.198 0.037 0.395 0.056 0.589 0.056h-1.045z" fill="url(#dot-net-original-q)"/></g><path d="m90.359 68.202c1.391-4.284 2.98-9.485 4.954-15.794 1.777-5.684 4.925-9.934 10.835-11.788l0.456-0.966c-9.636 0.577-14.14 5.479-16.405 12.738-3.964 12.673-6.365 20.888-8.677 26.123 2.952-2.823 5.904-6.288 8.837-10.313" fill="url(#dot-net-original-r)"/></g></svg>
