<?xml version="1.0" encoding="UTF-8"?>
<svg width="256" height="256" version="1.1" viewBox="0 0 39.743 39.731" xmlns="http://www.w3.org/2000/svg"><defs><linearGradient id="a" x1="17.883" x2="2.2391" y1="146.67" y2="195.85" gradientTransform="scale(.86285 1.159)" gradientUnits="userSpaceOnUse"><stop stop-color="#AACE36" offset="0"/><stop stop-color="#2FA042" offset="1"/></linearGradient><linearGradient id="b" x1="78.896" x2="322.45" y1="137.06" y2="173.87" gradientTransform="scale(.79215 1.2624)" gradientUnits="userSpaceOnUse"><stop stop-color="#79A933" offset="0"/><stop stop-color="#70A333" offset=".13"/><stop stop-color="#559332" offset=".34"/><stop stop-color="#277B2F" offset=".58"/><stop stop-color="#005F27" offset=".86"/><stop stop-color="#005020" offset="1"/></linearGradient><linearGradient id="c" x1="81.353" x2="170.7" y1="109.53" y2="285.75" gradientTransform="scale(1.0841 .92245)" gradientUnits="userSpaceOnUse"><stop stop-color="#79AB35" offset="0"/><stop stop-color="#7CBA3D" offset=".53"/><stop stop-color="#00AA4B" offset="1"/></linearGradient></defs><g transform="matrix(.10238 0 0 .10238 6.5623 .033481)"><path d="m252.88 231.54-1e-3 2e-3c-7.183-35.906-29.094-66.493-59.188-85.167-3e-3 0-0.01-6e-3 -0.012-7e-3l-0.034-0.02a0.322 0.322 0 0 0-0.03-0.019 130.48 130.48 0 0 0-8.576-4.873l-80.63-40.416v2e-3 -2e-3l2e-3 -2e-3 -4.335-2.173a44.726 44.726 0 0 1-0.756-0.373h-1e-3a1.069 1.069 0 0 0-0.052-0.027h-1e-3a23086 23086 0 0 1-0.055-0.028l-0.047-0.024-7e-3 -4e-3 -0.044-0.022-0.01-6e-3 -0.04-0.02-0.015-7e-3 -0.032-0.017a0.345 0.345 0 0 1-0.022-0.011l-0.022-0.011c-0.012-6e-3 -0.022-0.01-0.032-0.017a55.659 55.659 0 0 1-20.76-18.465c-5.925-8.82-9.38-19.436-9.38-30.86-1e-3 -21.228 11.94-39.665 29.471-48.968l-26.024 13.297c-42.833 21.376-72.243 65.622-72.243 116.74l1.932 22.428h1e-3l-1e-3 -5e-3 0.1 0.033-0.099-0.028c7.018 40.493 32.704 74.582 67.886 93.067l4e-3 3e-3 0.045 0.024 0.01 4e-3c0.014 7e-3 0.03 0.018 0.043 0.024a0.455 0.455 0 0 0 0.064 0.034l0.134 0.071 0.051 0.027 0.024 0.014 0.032 0.016 0.025 0.013 0.03 0.016 0.032 0.018 0.023 0.011a0.882 0.882 0 0 1 0.057 0.03l8.085 4.053c-0.01-0.022-0.018-0.046-0.027-0.07l0.03 0.072-3e-3 -2e-3 1e-3 3e-3 9.62 4.82 67.257 33.712c18.507 8.974 31.277 27.936 31.277 49.887v0.381c-2e-3 0.016-2e-3 0.033-2e-3 0.05v0.078l-1e-3 0.03v0.097l-1e-3 0.026v0.07l-1e-3 0.03v0.02l-2e-3 0.113v0.01c-0.227 14.296-5.873 27.278-14.972 36.98a55.549 55.549 0 0 1-14.495 11.087l16.712-8.536 9.315-4.753c42.829-21.382 72.243-65.631 72.243-116.75l-2.553-25.708" fill="#7cba3d"/><path d="m0 130.04c0-51.116 29.41-95.363 72.243-116.74l26.025-13.296c-17.53 9.304-29.473 27.74-29.473 48.967 0 11.425 3.456 22.041 9.381 30.861-8.818 22.07-13.95 44.715-15.678 67.25a81.82 81.82 0 0 1-36.981 8.799c-1.273 0-2.55-0.03-3.834-0.09a82.52 82.52 0 0 1-19.751-3.322zm186.64 208.33v-0.056zm0 0.062v-0.048zm-2e-3 0.064 2e-3 -0.055zm0 0.058v-0.044zm0 0.065v-0.053zm0 0.057v-0.04zm0 0.069v-0.05zm0 0.052v-0.031 0.03zm-2e-3 0.058 1e-3 -0.031v0.03zm0 0.067v-0.027zm-1e-3 0.055 1e-3 -0.026zm0 0.07v-0.026zm-1e-3 0.05v-0.02zm-1e-3 0.122v-0.01z" fill="#c5d83e"/><path d="m78.48 249.89-8.087-4.055a0.882 0.882 0 0 0-0.057-0.03l-0.023-0.011-0.033-0.018-0.03-0.016a0.165 0.165 0 0 0-0.024-0.013 0.412 0.412 0 0 0-0.032-0.016l-0.024-0.014-0.051-0.027-0.134-0.07a0.455 0.455 0 0 1-0.064-0.034l-0.042-0.025-0.011-4e-3 -0.045-0.024-4e-3 -3e-3c-35.183-18.486-60.869-52.577-67.887-93.072a82.52 82.52 0 0 0 19.751 3.323c1.285 0.06 2.561 0.089 3.834 0.089a81.82 81.82 0 0 0 36.981-8.799c-2.717 35.448 2.981 70.617 15.983 102.82" fill="url(#a)"/><path d="m104.41 101.03-4.335-2.173a44.726 44.726 0 0 1-0.756-0.373h-1e-3a1.069 1.069 0 0 0-0.052-0.027h-1e-3a23086 23086 0 0 1-0.055-0.028l-0.047-0.024-7e-3 -4e-3 -0.044-0.022-0.01-6e-3 -0.04-0.02-0.015-7e-3 -0.032-0.017a0.345 0.345 0 0 1-0.022-0.011l-0.022-0.011c-0.012-6e-3 -0.022-0.01-0.032-0.017a55.659 55.659 0 0 1-20.76-18.465c-8.818 22.07-13.95 44.715-15.678 67.25a82.677 82.677 0 0 0 35.337-34.31zm148.47 130.5c-30.683 20.296-67.377 32.06-106.58 32.06-2.985 0-5.985-0.068-8.996-0.207a194.04 194.04 0 0 1-49.203-8.675l67.256 33.712c18.507 8.974 31.277 27.936 31.277 49.887v0.381c-2e-3 0.016-2e-3 0.033-2e-3 0.05v0.078l-1e-3 0.03v0.097l-1e-3 0.026v0.07l-1e-3 0.03v0.02l-2e-3 0.113v0.01c-0.227 14.296-5.873 27.278-14.972 36.98a55.549 55.549 0 0 1-14.495 11.087l16.712-8.536 9.315-4.753c42.829-21.382 72.243-65.631 72.243-116.75z" fill="url(#b)"/><path d="m146.3 263.6c-2.986 0-5.986-0.068-8.997-0.207a194.04 194.04 0 0 1-49.203-8.675l-9.62-4.82c-13.002-32.202-18.7-67.37-15.983-102.81a82.677 82.677 0 0 0 35.336-34.31l6.572-11.734 80.63 40.416a130.48 130.48 0 0 1 8.606 4.892l0.034 0.02 0.012 7e-3c30.094 18.674 52.005 49.261 59.188 85.167-30.681 20.294-67.375 32.058-106.58 32.058" fill="url(#c)"/></g></svg>
