<?xml version="1.0" encoding="UTF-8"?>
<svg width="256" height="256" version="1.1" viewBox="-.12979 0 3.2901 3.3032" xmlns="http://www.w3.org/2000/svg"><g transform="matrix(.10214 0 0 .10214 -.11042 .019324)"><circle cx="15" cy="9.5" r="9.5" fill="#036c70"/><circle cx="23.875" cy="17.875" r="8.125" fill="#1a9ba1"/><circle cx="16" cy="25.5" r="6.5" fill="#37c6d0"/><path d="m16.667 7h-10.834a9.506 9.506 0 0 0 9.167 12c0.277 0 0.551-0.013 0.823-0.036l5e-3 0.038a6.5 6.5 0 0 0-6.328 6.498q0 0.252 0.019 0.5h7.148a1.337 1.337 0 0 0 1.333-1.333v-16.334a1.337 1.337 0 0 0-1.333-1.333z" opacity=".1"/><path d="m15.667 8h-10.05a9.505 9.505 0 0 0 9.383 11c0.277 0 0.551-0.013 0.823-0.036l5e-3 0.038a6.505 6.505 0 0 0-6.154 7.998h5.993a1.337 1.337 0 0 0 1.333-1.333v-16.334a1.337 1.337 0 0 0-1.333-1.333z" opacity=".2"/><path d="m15.667 8h-10.05a9.505 9.505 0 0 0 9.383 11c0.277 0 0.551-0.013 0.823-0.036l5e-3 0.038a6.5 6.5 0 0 0-6.31 5.998h6.149a1.337 1.337 0 0 0 1.333-1.333v-14.334a1.337 1.337 0 0 0-1.333-1.333z" opacity=".2"/><path d="m14.667 8h-9.05a9.505 9.505 0 0 0 9.383 11c0.277 0 0.551-0.013 0.823-0.036l5e-3 0.038a6.5 6.5 0 0 0-6.31 5.998h5.149a1.337 1.337 0 0 0 1.333-1.333v-14.334a1.337 1.337 0 0 0-1.333-1.333z" opacity=".2"/><path d="m1.333 8h13.334a1.333 1.333 0 0 1 1.333 1.333v13.334a1.333 1.333 0 0 1-1.333 1.333h-13.334a1.333 1.333 0 0 1-1.333-1.333v-13.334a1.333 1.333 0 0 1 1.333-1.333z" fill="#03787c"/><path d="m5.67 15.825a2.645 2.645 0 0 1-0.822-0.87 2.361 2.361 0 0 1-0.287-1.19 2.29 2.29 0 0 1 0.533-1.541 3.142 3.142 0 0 1 1.416-0.924 5.982 5.982 0 0 1 1.935-0.3 7.354 7.354 0 0 1 2.549 0.357v1.8a3.986 3.986 0 0 0-1.153-0.471 5.596 5.596 0 0 0-1.349-0.162 2.926 2.926 0 0 0-1.386 0.293 0.91 0.91 0 0 0-0.549 0.833 0.844 0.844 0 0 0 0.233 0.59 2.122 2.122 0 0 0 0.627 0.448q0.394 0.196 1.176 0.52a1.232 1.232 0 0 1 0.169 0.067 9.697 9.697 0 0 1 1.483 0.732 2.654 2.654 0 0 1 0.877 0.883 2.558 2.558 0 0 1 0.317 1.332 2.48 2.48 0 0 1-0.499 1.605 2.789 2.789 0 0 1-1.335 0.896 6.049 6.049 0 0 1-1.902 0.277 10.028 10.028 0 0 1-1.722-0.142 5.912 5.912 0 0 1-1.4-0.404v-1.902a4.5 4.5 0 0 0 1.416 0.675 5.513 5.513 0 0 0 1.558 0.25 2.68 2.68 0 0 0 1.413-0.3 0.947 0.947 0 0 0 0.475-0.847 0.904 0.904 0 0 0-0.266-0.648 2.704 2.704 0 0 0-0.735-0.512q-0.469-0.236-1.386-0.62a7.86 7.86 0 0 1-1.386-0.725z" fill="#fff"/><path d="m0 0h32v32h-32z" fill="none"/></g></svg>
