<?xml version="1.0" encoding="UTF-8"?>
<!DOCTYPE svg PUBLIC "-//W3C//DTD SVG 1.1//EN" "http://www.w3.org/Graphics/SVG/1.1/DTD/svg11.dtd">
<!-- Creator: CorelDRAW X7 -->
<svg xmlns="http://www.w3.org/2000/svg" xml:space="preserve" width="500px" height="425px" version="1.1" style="shape-rendering:geometricPrecision; text-rendering:geometricPrecision; image-rendering:optimizeQuality; fill-rule:evenodd; clip-rule:evenodd"
viewBox="0 0 384 326"
 xmlns:xlink="http://www.w3.org/1999/xlink">
 <defs>
  <style type="text/css">
   <![CDATA[
    .fil5 {fill:#0000E2}
    .fil2 {fill:#00B4B4}
    .fil3 {fill:#020205}
    .fil9 {fill:#43436A}
    .fil8 {fill:#6C4141}
    .fil7 {fill:#747474}
    .fil0 {fill:#9B9BFD}
    .fil4 {fill:#9D2B2B}
    .fil6 {fill:#F30D0D}
    .fil1 {fill:#FD7F7F}
   ]]>
  </style>
 </defs>
 <g id="Camada_x0020_1">
  <metadata id="CorelCorpID_0Corel-Layer"/>
  <g id="_351150856">
   <path class="fil0" d="M82 268c1,7 -4,5 -5,3 -2,-5 4,-4 5,-3zm54 -2c-1,-3 5,-5 6,-1 2,4 -6,4 -6,1zm-54 -15c5,-2 8,1 5,4 -2,1 -7,1 -5,-4zm-11 3c-2,1 -3,1 -5,0 0,-3 0,-4 2,-5 4,0 4,2 3,5zm79 0c-3,2 -3,2 -5,0 -1,-6 8,-5 5,0zm-17 -6l0 5c-3,1 -3,1 -6,-1 0,-5 3,-5 6,-4zm-25 17c0,0 0,0 -1,0 0,1 0,1 -1,1 0,0 -1,0 -1,0 -1,4 -8,11 -12,9 -1,-5 2,-3 6,-8 2,-3 4,-8 1,-12 -2,-3 -13,-13 -12,-18 3,-1 35,-1 38,0 2,7 -14,15 -17,19 1,5 5,9 8,12 5,4 12,6 9,9 -5,3 -17,-9 -18,-12zm52 -38c-8,2 -7,-10 -23,-12 -13,-1 -16,7 -19,8 -10,4 2,-17 23,-12 7,2 20,9 19,16zm-104 0c-3,-8 10,-16 17,-16 9,-1 23,5 22,13 -7,2 -8,-9 -21,-9 -13,1 -11,13 -18,12zm17 -31c-7,-9 -18,-32 -27,-41 -2,2 -2,4 -3,8 -1,4 -1,7 -2,11 -3,21 1,48 6,67 9,1 18,-4 18,4l-15 1c0,5 4,14 7,17 5,0 8,-3 12,-1 0,6 -4,3 -9,6 2,4 7,9 10,11 4,-1 5,-4 9,-2 0,4 -2,3 -4,6 12,11 43,13 58,8 7,-3 10,-6 16,-9 -3,-5 -3,-1 -2,-5 5,-2 4,2 7,-3 1,-1 2,-6 3,-8l-9 0c-1,-7 5,-4 11,-5l4 -18c-5,0 -14,1 -17,-1 -1,-7 8,-2 18,-4 4,-29 2,-67 -16,-91 -4,2 -13,26 -15,31 -1,3 -2,11 -3,13 -3,6 -19,5 -26,5 -7,1 -25,1 -31,0z"/>
   <path class="fil1" d="M322 133c-1,1 -3,1 -4,0 -2,-6 6,-6 4,0zm-49 -7l0 4 -5 0c0,-3 1,-6 5,-4zm40 -11l4 0 1 4c-4,1 -6,0 -5,-4zm17 2c0,-4 6,-4 6,0 0,3 -5,3 -6,0zm-47 -1c-1,-4 5,-4 6,-1 1,3 -5,4 -6,1zm-14 -6c-1,-4 5,-4 6,-1 1,3 -5,4 -6,1zm22 -12c6,-2 18,-1 22,3 -1,2 -6,11 -7,11 -4,4 -4,9 -5,14 0,9 -3,11 8,19 3,2 4,1 4,6 -7,0 -14,-7 -16,-11 -4,1 -10,5 -14,2 1,-8 12,3 14,-18 1,-9 1,-7 -2,-14 -1,-2 -4,-10 -4,-12zm59 -7c-8,1 -3,-15 -21,-15 -15,0 -15,9 -19,9 -7,0 6,-18 25,-13 7,2 18,12 15,19zm-101 -14c0,-1 0,-1 0,-2 0,-3 0,-1 1,-2 0,0 2,-1 2,-2 21,-12 41,7 39,16 -5,1 -4,-3 -8,-8 -6,-6 -14,-10 -23,-7 -5,2 -7,6 -11,5zm-11 -65c-2,2 -4,10 0,14 3,3 6,6 8,10 8,13 1,17 -11,20l2 49c5,2 11,-1 12,5 -4,2 -7,0 -11,1l2 11c3,0 7,-1 7,2 1,2 -3,2 -5,4l3 9c4,-1 5,-3 9,-1 -1,4 -2,3 -4,5 5,8 28,12 39,13 15,1 35,-1 44,-8 -1,-3 -3,-3 -2,-7 4,-1 3,1 6,2 2,-1 3,-1 4,-4 -1,-2 -2,-2 -3,-3 -2,-2 -2,-2 0,-4 3,-3 3,1 7,3l3 -5c-1,-4 -2,-1 -3,-5 3,-2 3,-1 6,-1 4,-17 10,-38 11,-55 -32,-15 1,-40 2,-47 0,-3 -1,-8 -2,-9 -6,10 -13,22 -19,34 -9,15 -12,13 -40,9 -46,-7 -39,0 -55,-25 -2,-4 -8,-15 -10,-17z"/>
   <path class="fil2" d="M251 302c-1,-4 0,-4 3,-3l1 3 -4 0zm64 -2c-1,-5 3,-4 4,-3 1,3 -1,3 -1,3l-3 0zm10 -16l4 -1c1,6 -5,6 -4,1zm-19 -1l4 0 1 3c-3,1 -6,1 -5,-3zm-60 0c2,-1 0,-1 3,-1 1,6 -3,4 -3,3 -2,-3 0,-2 0,-2zm18 -2l0 4c-7,0 -5,-6 0,-4zm9 -8c2,0 21,-1 23,1l0 3c-1,3 -5,8 -8,9 1,6 5,15 10,18 5,3 5,0 6,6 -8,3 -14,-8 -17,-11l-4 4c-3,4 -11,8 -16,6 0,-8 16,-1 16,-20 -3,-2 -12,-10 -10,-16zm-33 -10c-3,-20 40,-17 36,0 -8,0 -4,-9 -18,-10 -15,0 -10,10 -18,10zm65 1c-17,-1 17,-33 33,-8 4,6 -1,9 -4,5 -2,-4 -3,-7 -8,-9 -5,-2 -10,0 -14,2 -8,5 -4,5 -7,10zm-80 -60c-1,4 -2,30 -2,37 0,14 1,23 3,35 5,1 8,-3 14,-2 -1,5 -5,6 -12,7 0,4 2,8 4,11 4,0 3,-2 8,-1 0,4 -1,3 -5,6 1,2 2,3 4,5 5,0 2,-2 8,-1 0,5 -1,1 -2,6 7,3 13,7 22,9 16,6 37,9 52,1 5,-2 16,-8 18,-12 -4,-4 -7,-1 -6,-7 3,-2 6,2 11,3 2,-2 4,-4 5,-7 -4,-3 -6,-1 -6,-6 5,-1 4,1 9,1l1 -10 -14 -1c-1,-6 10,-3 16,-4 2,-7 2,-31 1,-40 -1,-23 -2,-19 -5,-37 -3,1 -4,4 -6,7l-15 23c-4,5 -5,10 -13,11 -10,0 -38,-1 -48,-2 -7,-1 -17,0 -21,-4 -3,-3 -8,-12 -10,-15 -2,-3 -7,-12 -11,-13z"/>
   <path class="fil1" d="M71 109c4,-2 7,-2 6,3 -3,2 -3,2 -6,0l0 -3zm48 2c-3,-5 1,-7 4,-5 3,2 1,6 -4,5zm12 -13c1,5 -3,6 -6,4 -2,-3 1,-6 6,-4zm-16 -2l0 4c-8,4 -9,-7 0,-4zm-47 4c-4,2 -7,-2 -5,-4 2,-3 8,-2 5,4zm17 -2c-3,2 -3,2 -6,1 -2,-8 6,-8 6,-1zm71 -47c3,6 -6,30 -22,34 -24,5 -28,-22 -31,-27l-10 -1c-2,5 -1,12 -9,18 -14,11 -32,2 -36,-23 -1,-6 1,-6 7,-6 9,0 72,1 79,2 7,1 9,3 16,2 1,0 2,0 3,0l2 1c1,0 1,0 1,0zm-58 56c-2,-2 0,1 -2,-2 -2,3 -1,1 -2,2 -1,3 -7,9 -9,10 -1,1 0,1 -1,2 0,0 1,1 1,1 2,1 1,0 2,1 6,0 15,2 23,1l19 -5 0 -4c0,0 0,0 0,0 0,-1 0,-1 0,-1 6,-2 3,3 9,1 1,0 6,-3 7,-4 -1,-1 1,0 -1,-1l-3 -2c0,-2 1,-4 5,-3 4,1 1,0 2,1 5,1 6,-2 8,-5 -7,-5 -12,0 -13,-7 5,-2 12,2 18,2 6,-12 11,-22 13,-37 1,-10 2,-37 -1,-46 -3,1 -10,9 -12,12 -16,17 -12,16 -20,14l-58 -2c-12,0 -12,2 -19,-5 -2,-3 -23,-21 -26,-22 -3,6 -4,30 -4,39 0,16 2,23 5,36 3,0 5,0 7,0 3,0 8,0 6,4 -2,2 -6,1 -10,2l2 5c5,0 8,-2 12,0 2,5 -3,3 -7,5 1,3 4,6 6,7 3,-1 4,-2 6,-3 5,-2 7,0 6,2 -1,2 -1,1 -2,2 -3,2 -2,0 -4,3 3,2 8,5 12,7 5,1 7,-2 12,-7 17,-18 -12,-30 11,-28 20,2 -1,9 7,24 6,10 13,7 12,14 -6,1 -16,-9 -17,-13z"/>
   <path class="fil3" d="M117 306c5,-2 14,-4 20,-3l0 18c-3,1 -18,-7 -22,-8l2 -7zm-43 8l0 -14c5,-1 17,0 19,4l2 8c-6,2 -15,6 -21,2zm-1 -118c6,1 24,1 31,0 7,0 23,1 26,-5 1,-2 2,-10 3,-13 2,-5 11,-29 15,-31 18,24 20,62 16,91 -10,2 -19,-3 -18,4 3,2 12,1 17,1l-4 18c-6,1 -12,-2 -11,5l9 0c-1,2 -2,7 -3,8 -3,5 -2,1 -7,3 -1,4 -1,0 2,5 -6,3 -9,6 -16,9 -15,5 -46,3 -58,-8 2,-3 4,-2 4,-6 -4,-2 -5,1 -9,2 -3,-2 -8,-7 -10,-11 5,-3 9,0 9,-6 -4,-2 -7,1 -12,1 -3,-3 -7,-12 -7,-17l15 -1c0,-8 -9,-3 -18,-4 -5,-19 -9,-46 -6,-67 1,-4 1,-7 2,-11 1,-4 1,-6 3,-8 9,9 20,32 27,41zm-61 57c6,2 23,-5 32,-6 2,7 6,12 7,18l-10 3 -10 5 0 3c6,2 15,-7 23,-7l2 3 9 11c-1,2 -3,3 -4,4 -4,3 -3,5 -3,5 0,0 0,1 0,1 5,1 7,-3 11,-6 2,-2 3,0 6,2 6,4 17,6 20,8 -7,1 -18,-3 -27,-2l0 11c0,5 -2,16 13,14 6,-1 15,-6 20,-4 11,4 1,-4 19,4 19,8 22,10 23,-6 0,-14 2,-18 -17,-15 -10,2 -13,5 -14,-1 6,-1 8,1 23,-3l6 -3 1 4c5,1 10,-9 13,-13 9,1 18,9 24,8l0 -4c-1,0 -7,-3 -9,-4 -4,-1 -8,-3 -12,-4 1,-3 3,-7 3,-8l2 -4c8,-2 17,1 25,1 0,-5 -2,-4 -7,-5 -3,-1 -7,-1 -11,-1l-5 0c0,-3 2,-16 4,-18 2,-2 13,-1 15,1 5,-1 10,2 14,-1 0,-3 -1,-3 -5,-3l-23 -2c1,-24 3,-36 -2,-59 -3,-10 -12,-38 -21,-41 -3,1 -5,7 -7,11 -3,4 -4,8 -6,12 -2,4 -4,9 -6,13 -1,5 -2,11 -4,15 -5,2 -39,3 -47,2 -3,-3 -12,-20 -15,-25l-13 -17c-1,-2 -2,-4 -5,-3 -7,6 -9,35 -9,47 0,26 6,41 7,49 -3,1 -13,3 -17,4 -10,2 -13,2 -13,6z"/>
   <path class="fil3" d="M148 104l-6 0c1,5 -1,-2 1,2 0,0 1,2 1,2 2,1 0,0 1,1 -1,1 -6,4 -7,4 -6,2 -3,-3 -9,-1 0,0 0,0 0,1 0,0 0,0 0,0l0 4 -19 5c-8,1 -17,-1 -23,-1 -1,0 -1,1 -3,0 -3,-1 -1,-1 -2,-2l3 -2c2,-1 8,-7 9,-10 1,-3 0,-2 2,-4 2,2 1,1 2,4 1,4 11,14 17,13 1,-7 -6,-4 -12,-14 -8,-15 13,-22 -7,-24 -23,-2 6,10 -11,28 -5,5 -7,8 -12,7 -4,-2 -9,-5 -12,-7 2,-3 1,-1 4,-3 1,-1 1,0 2,-2 1,-2 -1,-4 -6,-2 -2,1 -3,2 -6,3 -2,-1 -5,-4 -6,-7 4,-2 9,0 7,-5 -4,-2 -7,0 -12,0l-2 -5c4,-1 8,0 10,-2 2,-4 -3,-4 -6,-4 -2,0 -4,0 -7,0 -3,-13 -5,-20 -5,-36 0,-9 1,-33 4,-39 3,1 24,19 26,22 7,7 7,5 19,5l58 2c8,2 4,3 20,-14 2,-3 9,-11 12,-12 3,9 2,36 1,46 -2,15 -7,25 -13,37 -6,0 -13,-4 -18,-2 1,7 6,2 13,7 -2,3 -3,6 -8,5zm-148 -10c2,4 7,1 11,0 5,-1 10,-2 15,-3 4,-1 6,-2 10,-1l4 6c-4,2 -20,11 -22,11l-1 4c4,2 11,-3 15,-5 6,-4 11,-8 15,0l1 0 3 3 -3 2c-3,1 -8,5 -10,6 -3,2 -8,4 -8,8l3 1c6,-2 15,-11 22,-13 3,1 6,4 10,5 14,7 25,9 41,9 27,-1 25,-13 37,-1 3,3 4,8 9,7l0 -4c-1,-1 -6,-7 -7,-9 -2,-1 -2,0 -4,-1 1,-4 10,-8 10,-8 2,0 11,4 14,5l4 4c3,0 2,1 6,0 1,-7 -11,-8 -14,-11 -4,-1 -6,0 -3,-4 7,-11 14,2 21,0l0 -3 -6 -3 -7 -3c1,-4 5,-9 7,-14 7,-18 8,-36 7,-55 0,-5 0,-23 -5,-25 -5,3 -4,2 -13,11 -4,5 -15,19 -18,19l-38 -1c-8,0 -16,0 -24,-1 -15,0 -9,0 -18,-7 -5,-4 -9,-8 -13,-12 -7,-6 -8,-7 -18,-11 -9,61 1,77 0,84 -6,2 -11,3 -17,4 -4,1 -14,1 -16,6z"/>
   <path class="fil3" d="M362 61c-12,-4 -9,-15 -4,-24 0,-1 1,-3 2,-4 3,-3 0,-1 4,-3 0,5 1,27 -2,31zm-127 -30c5,2 11,11 8,17 -2,3 -4,3 -8,3l0 -20zm3 -19c2,2 8,13 10,17 16,25 9,18 55,25 28,4 31,6 40,-9 6,-12 13,-24 19,-34 1,1 2,6 2,9 -1,7 -34,32 -2,47 -1,17 -7,38 -11,55 -3,0 -3,-1 -6,1 1,4 2,1 3,5l-3 5c-4,-2 -4,-6 -7,-3 -2,2 -2,2 0,4 1,1 2,1 3,3 -1,3 -2,3 -4,4 -3,-1 -2,-3 -6,-2 -1,4 1,4 2,7 -9,7 -29,9 -44,8 -11,-1 -34,-5 -39,-13 2,-2 3,-1 4,-5 -4,-2 -5,0 -9,1l-3 -9c2,-2 6,-2 5,-4 0,-3 -4,-2 -7,-2l-2 -11c4,-1 7,1 11,-1 -1,-6 -7,-3 -12,-5l-2 -49c12,-3 19,-7 11,-20 -2,-4 -5,-7 -8,-10 -4,-4 -2,-12 0,-14zm-16 93c-5,0 -17,-2 -21,0 0,6 19,1 21,5 2,-1 4,-1 6,-1 2,1 2,1 2,1 2,1 1,0 2,1l3 12c-8,1 -28,2 -26,10 5,0 6,-3 13,-4 3,0 6,0 9,-1 4,0 5,-1 6,2l4 10c-2,1 -6,3 -9,4 -4,2 -7,2 -8,7 6,2 14,-6 21,-7 2,1 4,3 8,5 15,9 46,11 62,8 11,-2 14,-4 21,-8 3,2 6,5 9,8 6,6 4,8 9,7l0 -4c-2,-1 -3,-3 -5,-5 -1,-1 -2,-2 -2,-3 -2,-2 -2,-1 -3,-3l-3 -2c0,-4 2,-5 5,-7 8,5 14,15 21,14 -2,-7 -12,-9 -14,-14 -2,-1 -5,-2 -3,-6 0,-1 2,-4 3,-5 3,0 21,6 23,9 3,0 3,1 6,0 0,-5 0,-3 -10,-7 -3,-1 -10,-3 -12,-5l-4 -1c-1,-4 2,-9 3,-14 9,-36 13,-94 4,-109 -6,3 -18,29 -22,36 -10,18 -7,15 -38,11 -9,-1 -16,-2 -24,-3 -17,-2 -15,0 -29,-25 -4,-6 -8,-14 -13,-20 -6,5 -6,19 -7,26 -1,23 2,70 2,79l-10 -1z"/>
   <path class="fil3" d="M225 204c4,1 9,10 11,13 2,3 7,12 10,15 4,4 14,3 21,4 10,1 38,2 48,2 8,-1 9,-6 13,-11l15 -23c2,-3 3,-6 6,-7 3,18 4,14 5,37 1,9 1,33 -1,40 -6,1 -17,-2 -16,4l14 1 -1 10c-5,0 -4,-2 -9,-1 0,5 2,3 6,6 -1,3 -3,5 -5,7 -5,-1 -8,-5 -11,-3 -1,6 2,3 6,7 -2,4 -13,10 -18,12 -15,8 -36,5 -52,-1 -9,-2 -15,-6 -22,-9 1,-5 2,-1 2,-6 -6,-1 -3,1 -8,1 -2,-2 -3,-3 -4,-5 4,-3 5,-2 5,-6 -5,-1 -4,1 -8,1 -2,-3 -4,-7 -4,-11 7,-1 11,-2 12,-7 -6,-1 -9,3 -14,2 -2,-12 -3,-21 -3,-35 0,-7 1,-33 2,-37zm-26 82l0 3c7,3 19,-7 24,-4l3 8c2,1 1,-2 2,2l-4 2c-2,1 -5,2 -7,4 -4,2 -5,2 -6,6 2,1 1,1 4,1 2,-3 4,-4 7,-5 3,-2 5,-3 8,-4 3,2 5,5 6,8 -1,2 -1,1 -2,1l-10 10c0,2 0,1 0,2l1 1c5,2 6,-6 15,-11 4,1 8,4 12,6 19,8 50,15 69,6 13,-7 16,-12 21,-14 4,1 10,4 13,6l3 4 5 -1c-1,-5 -13,-11 -17,-13 1,-1 0,-1 2,-2l3 -6c8,1 20,10 26,9l0 -2c0,-2 0,2 0,-2l-21 -9 -2 0 2 -11c5,-1 16,2 20,3 4,1 5,2 8,0 -1,-4 -2,-3 -6,-4l-20 -5c0,-6 2,-15 2,-22 0,-9 0,-17 -1,-25 -1,-9 -4,-36 -9,-40 -4,0 -5,3 -7,6l-15 24c-3,4 -8,14 -12,15 -7,2 -40,-1 -50,-2 -19,-1 -11,4 -30,-22 -5,-7 -8,-14 -13,-13 -2,3 0,2 0,3 -1,2 -2,1 -3,3 -1,13 -2,26 -2,39 0,23 2,21 3,38 -6,2 -16,5 -22,7z"/>
   <path class="fil3" d="M87 52l1 6c-2,9 -7,18 -19,16 1,-2 3,-4 5,-6 9,-11 -1,-7 -6,-10l4 -7c5,0 11,0 15,1zm35 7c6,-10 6,-5 29,-4 -1,13 -17,34 -31,22 2,-4 11,-8 12,-12 -3,-4 -7,-3 -10,-6zm-7 14c-2,-4 -8,-15 -8,-21l12 0c0,5 -4,4 -5,11l9 3c-1,2 -5,6 -8,7zm-52 -2c-5,-2 -9,-12 -9,-20l11 0c-1,5 -5,6 -4,11 2,2 5,2 8,2 -1,3 -3,6 -6,7zm21 4c8,-6 7,-13 9,-18l10 1c3,5 7,32 31,27 16,-4 25,-28 22,-34 0,0 0,0 -1,0l-2 -1c-1,0 -2,0 -3,0 -7,1 -9,-1 -16,-2 -7,-1 -70,-2 -79,-2 -6,0 -8,0 -7,6 4,25 22,34 36,23z"/>
   <path class="fil3" d="M105 266l1 -2 2 1c1,3 13,15 18,12 3,-3 -4,-5 -9,-9 -3,-3 -7,-7 -8,-12 3,-4 19,-12 17,-19 -3,-1 -35,-1 -38,0 -1,5 10,15 12,18 3,4 1,9 -1,12 -4,5 -7,3 -6,8 4,2 11,-5 12,-9z"/>
   <path class="fil3" d="M296 274c-2,-2 -21,-1 -23,-1 -2,6 7,14 10,16 0,19 -16,12 -16,20 5,2 13,-2 16,-6l4 -4c3,3 9,14 17,11 -1,-6 -1,-3 -6,-6 -5,-3 -9,-12 -10,-18 3,-1 7,-6 8,-9l0 -3z"/>
   <path class="fil3" d="M313 101c-4,-4 -16,-5 -22,-3 0,2 3,10 4,12 3,7 3,5 2,14 -2,21 -13,10 -14,18 4,3 10,-1 14,-2 2,4 9,11 16,11 0,-5 -1,-4 -4,-6 -11,-8 -8,-10 -8,-19 1,-5 1,-10 5,-14 1,0 6,-9 7,-11z"/>
   <path class="fil4" d="M122 59c3,3 7,2 10,6 -1,4 -10,8 -12,12 14,12 30,-9 31,-22 -23,-1 -23,-6 -29,4z"/>
   <path class="fil5" d="M115 313c4,1 19,9 22,8l0 -18c-6,-1 -15,1 -20,3l-2 7z"/>
   <path class="fil5" d="M74 314c6,4 15,0 21,-2l-2 -8c-2,-4 -14,-5 -19,-4l0 14z"/>
   <path class="fil4" d="M68 58c5,3 15,-1 6,10 -2,2 -4,4 -5,6 12,2 17,-7 19,-16l-1 -6c-4,-1 -10,-1 -15,-1l-4 7z"/>
   <path class="fil3" d="M160 227c1,-7 -12,-14 -19,-16 -21,-5 -33,16 -23,12 3,-1 6,-9 19,-8 16,2 15,14 23,12z"/>
   <path class="fil3" d="M350 91c3,-7 -8,-17 -15,-19 -19,-5 -32,13 -25,13 4,0 4,-9 19,-9 18,0 13,16 21,15z"/>
   <path class="fil3" d="M305 264c3,-5 -1,-5 7,-10 4,-2 9,-4 14,-2 5,2 6,5 8,9 3,4 8,1 4,-5 -16,-25 -50,7 -33,8z"/>
   <path class="fil6" d="M362 61c3,-4 2,-26 2,-31 -4,2 -1,0 -4,3 -1,1 -2,3 -2,4 -5,9 -8,20 4,24z"/>
   <path class="fil3" d="M249 77c4,1 6,-3 11,-5 9,-3 17,1 23,7 4,5 3,9 8,8 2,-9 -18,-28 -39,-16 0,1 -2,2 -2,2 -1,1 -1,-1 -1,2 0,1 0,1 0,2z"/>
   <path class="fil3" d="M56 227c7,1 5,-11 18,-12 13,0 14,11 21,9 1,-8 -13,-14 -22,-13 -7,0 -20,8 -17,16z"/>
   <path class="fil3" d="M240 263c8,0 3,-10 18,-10 14,1 10,10 18,10 4,-17 -39,-20 -36,0z"/>
   <path class="fil4" d="M115 73c3,-1 7,-5 8,-7l-9 -3c1,-7 5,-6 5,-11l-12 0c0,6 6,17 8,21z"/>
   <path class="fil4" d="M63 71c3,-1 5,-4 6,-7 -3,0 -6,0 -8,-2 -1,-5 3,-6 4,-11l-11 0c0,8 4,18 9,20z"/>
   <path class="fil6" d="M235 51c4,0 6,0 8,-3 3,-6 -3,-15 -8,-17l0 20z"/>
   <path class="fil7" d="M200 107c5,2 17,2 22,3 -2,-4 -21,1 -21,-5 4,-2 16,0 21,0 -3,-2 -19,-2 -21,-1l-1 3z"/>
   <path class="fil3" d="M68 100c3,-6 -3,-7 -5,-4 -2,2 1,6 5,4z"/>
   <path class="fil3" d="M71 112c3,2 3,2 6,0 1,-5 -2,-5 -6,-3l0 3z"/>
   <path class="fil3" d="M119 111c5,1 7,-3 4,-5 -3,-2 -7,0 -4,5z"/>
   <path class="fil3" d="M85 98c0,-7 -8,-7 -6,1 3,1 3,1 6,-1z"/>
   <path class="fil3" d="M131 98c-5,-2 -8,1 -6,4 3,2 7,1 6,-4z"/>
   <path class="fil3" d="M115 96c-9,-3 -8,8 0,4l0 -4z"/>
   <path class="fil3" d="M136 266c0,3 8,3 6,-1 -1,-4 -7,-2 -6,1z"/>
   <path class="fil3" d="M127 252c3,2 3,2 6,1l0 -5c-3,-1 -6,-1 -6,4z"/>
   <path class="fil3" d="M87 255c3,-3 0,-6 -5,-4 -2,5 3,5 5,4z"/>
   <path class="fil3" d="M82 268c-1,-1 -7,-2 -5,3 1,2 6,4 5,-3z"/>
   <path class="fil3" d="M150 254c3,-5 -6,-6 -5,0 2,2 2,2 5,0z"/>
   <path class="fil3" d="M68 249c-2,1 -2,2 -2,5 2,1 3,1 5,0 1,-3 1,-5 -3,-5z"/>
   <path class="fil3" d="M283 116c1,3 7,2 6,-1 -1,-3 -7,-3 -6,1z"/>
   <path class="fil3" d="M330 117c1,3 6,3 6,0 0,-4 -6,-4 -6,0z"/>
   <path class="fil3" d="M269 110c1,3 7,2 6,-1 -1,-3 -7,-3 -6,1z"/>
   <path class="fil3" d="M322 133c2,-6 -6,-6 -4,0 1,1 3,1 4,0z"/>
   <path class="fil3" d="M273 126c-4,-2 -5,1 -5,4l5 0 0 -4z"/>
   <path class="fil3" d="M313 115c-1,4 1,5 5,4l-1 -4 -4 0z"/>
   <path class="fil3" d="M249 282c-3,0 -1,0 -3,1 0,0 -2,-1 0,2 0,1 4,3 3,-3z"/>
   <path class="fil3" d="M311 286l-1 -3 -4 0c-1,4 2,4 5,3z"/>
   <path class="fil3" d="M325 284c-1,5 5,5 4,-1l-4 1z"/>
   <path class="fil3" d="M318 300c0,0 2,0 1,-3 -1,-1 -5,-2 -4,3l3 0z"/>
   <path class="fil3" d="M264 281c-5,-2 -7,4 0,4l0 -4z"/>
   <path class="fil3" d="M255 302l-1 -3c-3,-1 -4,-1 -3,3l4 0z"/>
   <path class="fil8" d="M144 108c0,0 -1,-2 -1,-2 -2,-4 0,3 -1,-2l6 0c-1,-1 2,0 -2,-1 -4,-1 -5,1 -5,3l3 2z"/>
   <path class="fil8" d="M94 107c1,-1 0,1 2,-2 2,3 0,0 2,2 -1,-3 0,-2 -2,-4 -2,2 -1,1 -2,4z"/>
   <path class="fil8" d="M87 121c-1,-1 0,0 -2,-1 0,0 -1,-1 -1,-1 1,-1 0,-1 1,-2l-3 2c1,1 -1,1 2,2 2,1 2,0 3,0z"/>
   <path class="fil7" d="M48 111l3 -2 -3 -3c1,1 1,2 2,3 -4,2 -1,1 -2,2z"/>
   <path class="fil7" d="M224 297l4 -2c-1,-4 0,-1 -2,-2 0,3 1,0 0,2 -1,1 -1,2 -1,1 0,0 -1,1 -1,1z"/>
   <path class="fil9" d="M105 266c0,0 1,0 1,0 1,0 1,0 1,-1 1,0 1,0 1,0l-2 -1 -1 2z"/>
  </g>
 </g>
</svg>
